<svg xmlns="http://www.w3.org/2000/svg" viewBox="0 0 658.33 423.34"><defs><style>.cls-1{isolation:isolate;}.cls-13,.cls-16,.cls-19,.cls-2,.cls-3,.cls-34,.cls-38,.cls-39,.cls-43,.cls-45,.cls-6,.cls-8{fill:none;}.cls-2,.cls-3{stroke:#a9c6ea;}.cls-13,.cls-16,.cls-19,.cls-2,.cls-21,.cls-22,.cls-3,.cls-38,.cls-39,.cls-43,.cls-45,.cls-6,.cls-8{stroke-miterlimit:10;}.cls-3{stroke-dasharray:5 3.5;}.cls-4{fill:#e4ecf9;}.cls-23,.cls-5{fill:#d7e3f4;}.cls-6{stroke:#fff;}.cls-7{fill:#b2cded;}.cls-21,.cls-22,.cls-8{stroke:#648acc;}.cls-17,.cls-9{fill:#f886bc;}.cls-10{fill:#bf2c4c;}.cls-11{fill:#28364c;}.cls-12{fill:#101d54;}.cls-13{stroke:#273b7a;}.cls-13,.cls-16,.cls-34,.cls-38,.cls-39,.cls-43,.cls-45{stroke-width:0.75px;}.cls-14,.cls-15{fill:#e03b5a;}.cls-15,.cls-17{fill-rule:evenodd;}.cls-16{stroke:#a31d4a;}.cls-18{fill:#0b0b3a;}.cls-19{stroke:#0b0b3a;stroke-width:0.5px;}.cls-19,.cls-29,.cls-34{stroke-linecap:round;}.cls-20,.cls-22{fill:#fff;}.cls-21{fill:#d9e4f4;}.cls-23{opacity:0.45;}.cls-24{fill:#fdd305;}.cls-25{fill:#fe9;}.cls-26{opacity:0.55;mix-blend-mode:multiply;}.cls-27{fill:#ffc043;}.cls-28{fill:#475577;}.cls-29{fill:#ffcd5c;stroke:#ffc043;stroke-width:3px;}.cls-29,.cls-34{stroke-linejoin:round;}.cls-30{fill:#648acc;}.cls-31{fill:#f46072;}.cls-32{fill:#0c3656;}.cls-33{fill:#00276f;}.cls-34{stroke:#00276f;}.cls-35{fill:#212237;}.cls-36{fill:#4868ef;}.cls-37{fill:#22252d;}.cls-38{stroke:#474b51;}.cls-39{stroke:#28364c;}.cls-40{fill:#103bb2;}.cls-41{fill:#f2b18f;}.cls-42{fill:#0070e4;}.cls-43{stroke:#0b2e6b;}.cls-44{fill:#d8cac0;}.cls-45{stroke:#846a6a;}</style></defs><title>Asset 221</title><g class="cls-1"><g id="Layer_2" data-name="Layer 2"><g id="OBJECTS"><path class="cls-2" d="M64.3,362.17c-.8-.2-1.61-.4-2.42-.62"/><path class="cls-3" d="M58.53,360.56c-15.06-4.7-29.63-13.33-39.7-25.3C-16.66,293.09,24.93,239.05,66.3,222c20.18-8.3,38.37-18.22,44.3-41.22,5.67-22-9.86-45-13.87-66-8.08-42.28,30-75,70.06-75,37,0,53.62,14.09,90.31,38.67C284.83,97.06,336.91,108,376.91,104c47.65-4.67,65.62-25.54,103.59-42.53,26.14-11.7,62.57-14.2,87,3.13,26.12,18.52,16.19,54.77,19.17,81.83a50.18,50.18,0,0,0,5.91,19.45c21.4,37.76,65.23,39.7,65.23,95.61,0,40.34-64.37,56.33-99.12,61.58"/><path class="cls-2" d="M557,323.35l-2.48.34"/><line class="cls-2" x1="54.3" y1="151.43" x2="68.57" y2="151.43"/><line class="cls-2" x1="68.57" y1="159.36" x2="82.83" y2="159.36"/><line class="cls-2" x1="489.56" y1="89.12" x2="503.82" y2="89.12"/><line class="cls-2" x1="480.5" y1="97.06" x2="494.77" y2="97.06"/><line class="cls-2" x1="502.24" y1="93.27" x2="521.62" y2="93.27"/><line class="cls-2" x1="626.63" y1="258.19" x2="636.89" y2="258.19"/><line class="cls-2" x1="617.32" y1="250.35" x2="631.58" y2="250.35"/><line class="cls-2" x1="155.04" y1="50.62" x2="169.3" y2="50.62"/><line class="cls-2" x1="131.8" y1="222.5" x2="155.26" y2="222.5"/><line class="cls-2" x1="160.21" y1="222.5" x2="172.39" y2="222.5"/><path class="cls-2" d="M434.21,192.59A4.61,4.61,0,1,1,429.6,188,4.61,4.61,0,0,1,434.21,192.59Z"/><path class="cls-2" d="M615.13,160.73a4.61,4.61,0,1,1-4.6-4.6A4.6,4.6,0,0,1,615.13,160.73Z"/><path class="cls-2" d="M444.23,61.49a4.61,4.61,0,1,1-4.6-4.61A4.6,4.6,0,0,1,444.23,61.49Z"/><path class="cls-2" d="M534.18,68.38a2.29,2.29,0,1,1-2.29-2.29A2.3,2.3,0,0,1,534.18,68.38Z"/><path class="cls-2" d="M394.16,240.45a2.29,2.29,0,1,1-2.29-2.29A2.29,2.29,0,0,1,394.16,240.45Z"/><path class="cls-2" d="M128,76.19a2.29,2.29,0,1,1-2.29-2.29A2.29,2.29,0,0,1,128,76.19Z"/><path class="cls-2" d="M24.54,219.29A2.29,2.29,0,1,1,22.25,217,2.29,2.29,0,0,1,24.54,219.29Z"/><path class="cls-2" d="M137.34,172.38a2.29,2.29,0,1,1-2.29-2.29A2.29,2.29,0,0,1,137.34,172.38Z"/><line class="cls-2" x1="66.68" y1="101.31" x2="66.68" y2="106.73"/><line class="cls-2" x1="69.39" y1="104.02" x2="63.97" y2="104.02"/><line class="cls-2" x1="383.75" y1="29.01" x2="383.75" y2="34.43"/><line class="cls-2" x1="386.46" y1="31.72" x2="381.04" y2="31.72"/><line class="cls-2" x1="554.34" y1="112.83" x2="554.34" y2="118.25"/><line class="cls-2" x1="557.05" y1="115.54" x2="551.63" y2="115.54"/><line class="cls-2" x1="642.95" y1="185.27" x2="642.95" y2="190.69"/><line class="cls-2" x1="645.66" y1="187.98" x2="640.24" y2="187.98"/><line class="cls-2" x1="617.32" y1="280.41" x2="617.32" y2="285.83"/><line class="cls-2" x1="620.03" y1="283.12" x2="614.61" y2="283.12"/><path class="cls-4" d="M462.18,220.35a45.59,45.59,0,0,0,5.93-20.4l-9.63-1.33a35.72,35.72,0,0,0-1.06-9.54l9.12-3.4a46,46,0,0,0-10.23-18.62l-7.77,5.88a35.52,35.52,0,0,0-7.48-6l4-8.85a45.59,45.59,0,0,0-20.4-5.93l-1.33,9.63a35.65,35.65,0,0,0-9.53,1.06l-3.41-9.12A45.91,45.91,0,0,0,391.82,164l5.87,7.76a35.52,35.52,0,0,0-6,7.48l-8.85-4a45.59,45.59,0,0,0-5.93,20.4l9.64,1.33a35.65,35.65,0,0,0,1.06,9.53l-9.12,3.41a45.77,45.77,0,0,0,10.23,18.61l7.76-5.87a35.52,35.52,0,0,0,7.48,6l-4,8.85a45.59,45.59,0,0,0,20.4,5.93l1.34-9.64a35.65,35.65,0,0,0,9.53-1.06l3.4,9.13a46,46,0,0,0,18.62-10.24l-5.88-7.76a35.88,35.88,0,0,0,6-7.48Zm-46.1-.47a23,23,0,1,1,28.56-15.69A23,23,0,0,1,416.08,219.88Zm1.69-5.81a17,17,0,1,1,21.06-11.57A17,17,0,0,1,417.77,214.07Z"/><path class="cls-4" d="M471.93,126.48a22.6,22.6,0,0,0-3.31-10l-4.29,2.16a18.06,18.06,0,0,0-3.1-3.58l2.75-3.94a22.58,22.58,0,0,0-9.38-4.69L453.09,111a17.69,17.69,0,0,0-4.72-.34l-.84-4.73a22.6,22.6,0,0,0-9.95,3.31l2.16,4.29a18.06,18.06,0,0,0-3.58,3.1l-3.94-2.75a22.66,22.66,0,0,0-4.7,9.38l4.57,1.51a17.69,17.69,0,0,0-.34,4.72l-4.73.84a22.6,22.6,0,0,0,3.31,9.95l4.29-2.16a17.79,17.79,0,0,0,3.1,3.58L435,145.68a22.6,22.6,0,0,0,9.38,4.7l1.51-4.57a17.69,17.69,0,0,0,4.72.35l.84,4.72a22.26,22.26,0,0,0,9.95-3.31l-2.16-4.29a17.48,17.48,0,0,0,3.58-3.1l3.94,2.75a22.6,22.6,0,0,0,4.7-9.38L466.86,132a17.28,17.28,0,0,0,.34-4.72Zm-19.43,11a9.58,9.58,0,1,1,6.06-12.11A9.57,9.57,0,0,1,452.5,137.51Z"/><path class="cls-4" d="M235.74,94.08a34.77,34.77,0,0,0-1.63-7.92,34.27,34.27,0,0,0-3.44-7.31l-6.56,3.3a27.08,27.08,0,0,0-4.75-5.47l4.21-6a34.64,34.64,0,0,0-14.35-7.19l-2.31,7a26.84,26.84,0,0,0-7.23-.53l-1.28-7.23a34.66,34.66,0,0,0-7.92,1.63,34.27,34.27,0,0,0-7.31,3.44l3.3,6.56A26.55,26.55,0,0,0,181,79.07l-6-4.21a34.62,34.62,0,0,0-7.18,14.35l7,2.31a27.25,27.25,0,0,0-.52,7.23L167,100a35.23,35.23,0,0,0,1.64,7.92,34.73,34.73,0,0,0,3.43,7.31l6.57-3.3a26.81,26.81,0,0,0,4.75,5.47l-4.22,6a34.66,34.66,0,0,0,14.36,7.18l2.31-7a27.15,27.15,0,0,0,7.22.52l1.29,7.24a35.34,35.34,0,0,0,7.92-1.64,34.73,34.73,0,0,0,7.31-3.43l-3.3-6.57a27.08,27.08,0,0,0,5.47-4.75l6,4.21A34.58,34.58,0,0,0,235,104.9l-7-2.31a27.15,27.15,0,0,0,.53-7.22ZM206,111a14.65,14.65,0,1,1,9.27-18.53A14.66,14.66,0,0,1,206,111Z"/><path class="cls-4" d="M170,148.74a25.84,25.84,0,0,0,2.36-5.57,25.51,25.51,0,0,0,1-6l-5.45-.76a20.72,20.72,0,0,0-.6-5.4l5.16-1.92a26,26,0,0,0-5.79-10.55l-4.4,3.33a20.36,20.36,0,0,0-4.24-3.4l2.29-5a26.16,26.16,0,0,0-5.58-2.37,26.5,26.5,0,0,0-6-1l-.75,5.46a19.85,19.85,0,0,0-5.4.6L140.67,111a26,26,0,0,0-10.55,5.8l3.33,4.39a20.36,20.36,0,0,0-3.4,4.24l-5-2.29a25.91,25.91,0,0,0-3.36,11.56l5.46.75a19.85,19.85,0,0,0,.6,5.4l-5.17,1.93a26,26,0,0,0,5.8,10.55l4.4-3.33a20.56,20.56,0,0,0,4.23,3.4l-2.28,5a25.92,25.92,0,0,0,11.55,3.36l.76-5.46a19.89,19.89,0,0,0,5.4-.6l1.93,5.17a26,26,0,0,0,10.54-5.8l-3.33-4.4a19.67,19.67,0,0,0,3.4-4.23Zm-26.12-.26a13,13,0,1,1,16.18-8.89A13,13,0,0,1,143.87,148.48Zm1-3.29a9.62,9.62,0,1,1,11.92-6.56A9.62,9.62,0,0,1,144.83,145.19Z"/><path class="cls-5" d="M295.81,422.94c3.05-6.28,18.93-33.78,35.66-42.87a18.26,18.26,0,0,1,6.79-2.45,7.28,7.28,0,0,1,6.49,2.47,8.19,8.19,0,0,1,1.1,6.34c-3,17.21-22.64,23.79-32.21,36.51"/><path class="cls-5" d="M295.81,422.84s15.75-31.09,31.13-49.61c7.28-8.77,12.28-25,4.63-29.88-11.08-7-22,8.64-26.95,16.43-7.54,11.78-13.09,24.81-17.36,38.09-.62,1.92-6.27,25-6.39,25h14.94Z"/><path class="cls-6" d="M325.93,352.26c-14.52,18.36-26.57,45.54-34.57,70.58"/><path class="cls-7" d="M262.79,422.84s-1.83-47.84-23-70c-5.72-6-15.1-12.18-22.79-13.88-10-2.21-9.7,9.52-7.9,17.12,2.34,9.84,10.39,16,16.19,23.32,10.68,13.49,17.05,22.4,24.85,43.4"/><path class="cls-5" d="M269.15,422.84c5.71-10.46,3.7-55.16.84-69.17a71.41,71.41,0,0,0-11.67-27c-5.06-7-20.2-22.57-29.11-16.26-5.15,3.65,2.65,16.79,4.71,20.74A224.43,224.43,0,0,1,250,371.69a246.47,246.47,0,0,1,9.69,50.5c0,.22,0,.43,0,.65"/><path class="cls-7" d="M270.19,422.84c-1.88-25-.67-63.45,10.61-85.15,12.8-24.61,29.48-36,31.9-26.38,7,27.81-21.16,102.63-29.09,111.53"/><path class="cls-6" d="M214.2,347c22.78,15.88,38.5,46,41.43,75.86"/><path class="cls-6" d="M237.51,318.4c11.19,10,16.88,25.62,20.32,40.76a340.68,340.68,0,0,1,7.77,63.68"/><path class="cls-6" d="M305.51,321.83c-13.77,31.66-25.39,65.85-27.34,101"/><path class="cls-6" d="M338,383.63S317.88,397,303.83,422.84"/><path class="cls-7" d="M544.05,422.76c3-39.54-.34-78.32,14.72-115.79,4.28-10.63,14-27.4,27.49-28,20.81-.88,8.07,40.92,4.3,56.56a232.86,232.86,0,0,1-9.8,29.69c-6.65,17.05-16.67,40.9-24.23,57.52"/><path class="cls-5" d="M533.25,422.76c-6.55-16.76-13-33.58-19.44-50.37-5.75-14.89-12.44-29.45-17.08-44.74-3.54-11.65-12.67-38.33.7-46.53,23.82-14.61,42.85,41.91,45.36,62,3.31,26.46,2.6,53.07,3,79.66"/><path class="cls-7" d="M514.33,422.76s-13.92-17.78-20.2-26.11c-14-18.63-31.31-38.85-28.72-59.79.59-4.81,2.35-10.18,7.2-13a16.82,16.82,0,0,1,10-1.9C494,323,504.2,339.56,509.33,348c10,16.61,25.58,74.72,25.58,74.72"/><path class="cls-6" d="M503.68,292.83c17,34.36,33.57,98,34,129.93"/><path class="cls-6" d="M477.27,332.29c15,28.71,45.35,90.47,45.35,90.47"/><path class="cls-6" d="M585.39,288.09c-12.19,27.19-28.91,86.15-35.64,134.75"/><path class="cls-5" d="M557.12,422.76s7-31,11.76-48.57c5.24-19.13,22.37-48.41,40.37-56.73,4.14-1.91,9.14-3.23,13.14-1a11.44,11.44,0,0,1,5,6.46c3.06,8.94-11.93,37.2-17.08,45.13-10.1,15.53-24.56,40.2-36,54.75"/><path class="cls-6" d="M619.05,323.69c-21.28,18.48-49.75,77.4-57.71,99.07"/><path class="cls-7" d="M95.26,403.48c-2.72-14.45-7.19-43.1-10.58-60.69-1.64-8.51-6.39-18.9-9.41-27-5.5-14.73-18.79-40.33-35.27-39-20.45,1.7-3.92,38.46,1.29,52.34a200.11,200.11,0,0,0,12.46,26C61.92,370,74,390.67,83.05,405"/><path class="cls-7" d="M107.07,387.89c-5-13.05-3.64-29.65-3.63-43.47,0-24.86,8.67-59.81,24.85-76.12,6.68-6.73,17.72-14.21,24.89-3.92,6.8,9.73-1.06,36.19-3.53,47.56-4.85,22.27-28.06,63.5-34.76,85.06"/><path class="cls-6" d="M141.29,275.74c-11.5,29.84-27,84.28-30.91,116"/><path class="cls-6" d="M41.73,285.09C56.31,308.53,77.67,358.76,89,402.47"/><path class="cls-5" d="M95.85,371.89c6.13-10,13.4-42.62,15.06-54.27,2.34-16.37,2.59-33.67-1.47-49.8-2.73-10.88-15.25-43.44-31-28.76-7.37,6.9-6.2,44.47-5.32,54.53,1.72,19.7,11.93,55,15.43,74.43"/><path class="cls-6" d="M87.18,247.46c10.79,28.09,8.06,97.9,4.69,122.31"/><line class="cls-8" y1="422.84" x2="627.83" y2="422.84"/><path class="cls-9" d="M253.39,140.17c3.07-3,10.52-13.26,11.36-13s-1.72,3.88-1,4,5.07-5.24,5.85-4.77c1.05.65-3.68,5.86-3.68,5.86s5.47-5.45,6.22-4.62c.53.58-3.45,4.93-4.76,6.79,1.67-1.83,4.75-4.47,5.29-3.85s-2.12,3.63-4,6.06c1.33-1.4,3.89-3.82,4.41-3.28s-5.88,10.31-11.75,17.43"/><path class="cls-9" d="M214.32,177.54A440.94,440.94,0,0,0,258,134.83l9.8,6.55s-16.45,25.51-38,47.47"/><path class="cls-10" d="M206.52,185c5.4-6.77,14.31-13.32,14.31-13.32l15.81,12.79-13.88,16.28"/><path class="cls-9" d="M233.77,301,225.4,411.23l9.9,6.31s-27.22,1.41-28.11.52,1.12-7,1.12-7l-4.54-110.34Z"/><path class="cls-11" d="M211.53,418l-4.05-4,.57-2.09,6.23,6.08,3,0,10.57-5.22L239.32,420a1.55,1.55,0,0,1-.83,2.87l-15.42,0-4.92-3.43h-1.4v3.4l-10,0,0-4.76Z"/><path class="cls-9" d="M211.78,300.39,187.09,411.23l9.9,6.31s-27.22,1.41-28.1.52,1.11-7,1.11-7l7.22-110.67Z"/><path class="cls-11" d="M173.22,418l-4.05-4,.57-2.09L176,418l3,0,10.57-5.22L201,420a1.55,1.55,0,0,1-.83,2.87l-15.42,0-4.92-3.43h-1.4v3.4l-10,0,0-4.76Z"/><path class="cls-12" d="M185.82,243.22c-13.58,23.91-13.56,68.38-13.56,68.38h63s-.86-39.06-7.9-61.07Z"/><line class="cls-13" x1="206.86" y1="245.37" x2="208.43" y2="311.6"/><path class="cls-13" d="M220.8,248.15s-3.19,8.07-13.94,10.86"/><path class="cls-9" d="M276.48,220c4.13,1.21,16.7,2.73,16.89,3.59s-4.23.39-3.94,1.07,7.05,1.87,7,2.78c-.05,1.24-6.91-.36-6.91-.36s7.42,2.12,7.07,3.18c-.25.75-6-.61-8.25-.85,2.41.57,6.21,2,5.94,2.75s-4.21-.08-7.25-.56c1.87.48,5.23,1.53,5,2.26s-9.92-.66-19-2.32"/><path class="cls-14" d="M202.4,178.6s1,2.67,6.69,2.67c3.95,0,5.43-2.07,5.43-2.07s1.46,1.3,17,21.72c3.3,4.32,2.59,13.65-2.92,21.71a135.88,135.88,0,0,0-1.28,27.9h-45s-.79-32.35,2.33-50A29.93,29.93,0,0,1,202.4,178.6Z"/><path class="cls-9" d="M232.14,192.59c30,23.54,50.8,28.64,50.8,28.64l-2.44,11.54s-36-4.57-59.7-24.47"/><path class="cls-15" d="M214.72,180c7.69,1.3,19.5,12.63,19.5,12.63L221.69,211s-5.32-3.69-12.54-9.89"/><path class="cls-16" d="M221.69,210.31c-9.39-5.72-13.61-9.91-13.61-9.91"/><path class="cls-17" d="M218.08,158.66c3.13,5.18,4.42,10.35,0,13s-11.44,4-15.92-3.39c-3.15-5.16-2.12-11.52,2.27-14.17S215,153.49,218.08,158.66Z"/><path class="cls-18" d="M214.43,160c.15.52.56,1.14,1.08,1.12a.3.3,0,0,0,.3-.23C216.12,160,214.13,158.89,214.43,160Z"/><path class="cls-19" d="M212.36,159.54a4,4,0,0,1,3-1.73"/><path class="cls-20" d="M219.27,164.56l-2.9,1.45s1,2.51,2.59,2C220.27,167.66,219.27,164.56,219.27,164.56Z"/><path class="cls-17" d="M214.72,180a12.42,12.42,0,0,1-5.63,1.3c-4.53-.12-6.69-1.93-6.69-1.93l3-12.76,11,.8Z"/><path class="cls-17" d="M217,158.9s3.75,2.51,3.88,3.18-1.45,1.63-1.45,1.63"/><path class="cls-18" d="M206.52,150.54c-.4.2-1.8-.18-2.31-.18a12.76,12.76,0,0,0-2.13.18c-4.18.77-7.3,4.23-9.27,7.79-1.29,2.34-2.38,4.93-4.73,6.42-5.17,3.26-12,2.09-17.76,4s-10.41,8-8.83,14.36c.52,2.09,1.61,4,2.26,6,1.38,4.39.73,9.49,3.37,13.26a11.7,11.7,0,0,0,2.6,2.61,18,18,0,0,0,27.65-7.66c2.34-5.83,1.61-12.78,5-18.06,1.59-2.47,4-4.35,5.56-6.82,1.44-2.26,2.2-6.51,2.38-9.23,0-.63-1.09-5.85-.75-5.85a12.82,12.82,0,0,0,7.78-3.29A7.94,7.94,0,0,0,206.52,150.54Z"/><path class="cls-9" d="M209.45,164a1.82,1.82,0,0,0-2.61.46c-1.33,2,1.88,4.52,3.43,4.63s1.51-1.56,1.51-1.56"/><rect class="cls-21" x="448.68" y="132.28" width="97.91" height="130.75"/><rect class="cls-22" x="463.3" y="132.28" width="97.91" height="130.75"/><path class="cls-23" d="M480.31,142.45H545A3.59,3.59,0,0,1,548.6,146v9.9a3.59,3.59,0,0,1-3.59,3.59h-64.7a3.6,3.6,0,0,1-3.6-3.6V146A3.6,3.6,0,0,1,480.31,142.45Z"/><path class="cls-23" d="M480.31,204.19h34.19a3.59,3.59,0,0,1,3.59,3.59v40.86a3.6,3.6,0,0,1-3.6,3.6H480.31a3.6,3.6,0,0,1-3.6-3.6V207.79A3.59,3.59,0,0,1,480.31,204.19Z"/><path class="cls-7" d="M482.07,176.55h-2.18c-1.76,0-3.18-1.87-3.18-4.17s1.42-4.18,3.18-4.18h2.18Z"/><path class="cls-5" d="M485.25,172.38c0,2.3-1.42,4.17-3.18,4.17s-3.18-1.87-3.18-4.17,1.43-4.18,3.18-4.18S485.25,170.07,485.25,172.38Z"/><path class="cls-7" d="M503.19,176.55H501c-1.76,0-3.18-1.87-3.18-4.17s1.42-4.18,3.18-4.18h2.18Z"/><path class="cls-5" d="M506.37,172.38c0,2.3-1.42,4.17-3.18,4.17s-3.18-1.87-3.18-4.17,1.42-4.18,3.18-4.18S506.37,170.07,506.37,172.38Z"/><path class="cls-7" d="M524.3,176.55h-2.18c-1.75,0-3.18-1.87-3.18-4.17s1.43-4.18,3.18-4.18h2.18Z"/><path class="cls-5" d="M527.49,172.38c0,2.3-1.43,4.17-3.19,4.17s-3.18-1.87-3.18-4.17,1.43-4.18,3.18-4.18S527.49,170.07,527.49,172.38Z"/><path class="cls-7" d="M545.42,176.55h-2.18c-1.76,0-3.18-1.87-3.18-4.17s1.42-4.18,3.18-4.18h2.18Z"/><path class="cls-5" d="M548.6,172.38c0,2.3-1.42,4.17-3.18,4.17s-3.18-1.87-3.18-4.17,1.42-4.18,3.18-4.18S548.6,170.07,548.6,172.38Z"/><path class="cls-7" d="M482.07,196.76h-2.18c-1.76,0-3.18-1.87-3.18-4.17s1.42-4.18,3.18-4.18h2.18Z"/><path class="cls-5" d="M485.25,192.59c0,2.3-1.42,4.17-3.18,4.17s-3.18-1.87-3.18-4.17,1.43-4.18,3.18-4.18S485.25,190.28,485.25,192.59Z"/><path class="cls-7" d="M503.19,196.76H501c-1.76,0-3.18-1.87-3.18-4.17s1.42-4.18,3.18-4.18h2.18Z"/><path class="cls-5" d="M506.37,192.59c0,2.3-1.42,4.17-3.18,4.17s-3.18-1.87-3.18-4.17,1.42-4.18,3.18-4.18S506.37,190.28,506.37,192.59Z"/><path class="cls-7" d="M524.3,196.76h-2.18c-1.75,0-3.18-1.87-3.18-4.17s1.43-4.18,3.18-4.18h2.18Z"/><path class="cls-5" d="M527.49,192.59c0,2.3-1.43,4.17-3.19,4.17s-3.18-1.87-3.18-4.17,1.43-4.18,3.18-4.18S527.49,190.28,527.49,192.59Z"/><path class="cls-7" d="M545.42,196.76h-2.18c-1.76,0-3.18-1.87-3.18-4.17s1.42-4.18,3.18-4.18h2.18Z"/><path class="cls-5" d="M548.6,192.59c0,2.3-1.42,4.17-3.18,4.17s-3.18-1.87-3.18-4.17,1.42-4.18,3.18-4.18S548.6,190.28,548.6,192.59Z"/><polygon class="cls-22" points="76.88 422.84 243.04 422.84 243.04 295.52 118.69 295.52 76.88 344.41 76.88 422.84"/><polygon class="cls-21" points="195.88 422.84 257.1 422.84 257.1 295.52 236.84 295.52 195.88 344.41 195.88 422.84"/><rect class="cls-21" x="76.88" y="344.41" width="118.99" height="78.43" transform="translate(272.76 767.25) rotate(180)"/><path class="cls-7" d="M206.52,309.79c1.14,1,3.47.35,5.21-1.56s2.21-4.3,1.08-5.35c-.78-.7-2.37-2.16-2.37-2.16l-6.28,6.91Z"/><path class="cls-5" d="M204.31,307.77c1.14,1,3.47.34,5.2-1.57s2.22-4.3,1.08-5.34-3.47-.34-5.2,1.57S203.17,306.73,204.31,307.77Z"/><path class="cls-7" d="M188,309.79c1.14,1,3.47.35,5.2-1.56s2.22-4.3,1.08-5.35l-2.36-2.16-6.28,6.91Z"/><path class="cls-5" d="M185.79,307.77c1.14,1,3.47.34,5.2-1.57s2.22-4.3,1.08-5.34-3.47-.34-5.2,1.57S184.65,306.73,185.79,307.77Z"/><path class="cls-7" d="M149.87,309.79c1.14,1,3.47.35,5.21-1.56s2.22-4.3,1.08-5.35l-2.36-2.16-6.29,6.91Z"/><path class="cls-5" d="M147.66,307.77c1.14,1,3.47.34,5.21-1.57s2.22-4.3,1.08-5.34-3.47-.34-5.21,1.57S146.52,306.73,147.66,307.77Z"/><path class="cls-7" d="M130.23,309.79c1.14,1,3.47.35,5.21-1.56s2.22-4.3,1.08-5.35c-.78-.7-2.36-2.16-2.36-2.16l-6.29,6.91Z"/><path class="cls-5" d="M128,307.77c1.14,1,3.47.34,5.21-1.57s2.22-4.3,1.08-5.34-3.47-.34-5.21,1.57S126.88,306.73,128,307.77Z"/><polygon class="cls-23" points="194.46 335.5 201.06 326.94 100.52 326.94 92.96 335.5 194.46 335.5"/><path class="cls-8" d="M305.65,276V382.35a9.31,9.31,0,0,1-9.31,9.32H237.18a9.31,9.31,0,0,1-9.31-9.32v-3"/><path class="cls-8" d="M320.31,280.9V402.38a9.5,9.5,0,0,1-9.5,9.5H216.76a9.31,9.31,0,0,1-9.31-9.31V379.31"/><path class="cls-8" d="M346.92,278.87v70.47a9.31,9.31,0,0,0,9.31,9.32h73.46a9.32,9.32,0,0,0,9.32-9.32V228.61a9.31,9.31,0,0,1,9.31-9.32h30.29"/><path class="cls-8" d="M335.11,280.9v98.78a9.31,9.31,0,0,0,9.31,9.31H479.29a9.31,9.31,0,0,0,9.32-9.31V242.35"/><path class="cls-24" d="M238.88,126.32a87.63,87.63,0,1,1,158.45,51.6h0c-12.51,18.85-45,40.13-45,52.88v14.56a5.27,5.27,0,0,1-5.27,5.27H306a5.26,5.26,0,0,1-5.26-5.27V230.8c0-12.75-32.5-34-45-52.88h0A87.22,87.22,0,0,1,238.88,126.32Z"/><path class="cls-20" d="M336.45,249.17c-.1-2.19-1.67-37.37,1.15-68.19a99.58,99.58,0,0,1-22.19,0c2.81,30.82,1.24,66,1.14,68.19L315,249.1c0-.54,1.65-36.92-1.23-68.33-26-3.62-37.62-18.34-39.71-32.24-1.22-8.12,1.55-16.2,6.59-19.21a13.28,13.28,0,0,1,10.69-1.08c6.19,1.78,12.07,7.11,15.73,14.27,4.24,8.27,6.74,22,8.18,36.89a96.13,96.13,0,0,0,22.49,0c1.44-14.9,3.94-28.62,8.17-36.89,3.66-7.16,9.54-12.49,15.73-14.27a13.28,13.28,0,0,1,10.69,1.08c5,3,7.82,11.09,6.6,19.21-2.09,13.9-13.72,28.62-39.71,32.24-2.88,31.41-1.26,67.79-1.23,68.33Zm29.54-120a14.36,14.36,0,0,0-3.91.58c-5.78,1.66-11.31,6.7-14.78,13.49-4.07,7.95-6.5,21.33-7.92,36,24.89-3.59,36-17.62,38-30.87,1.11-7.41-1.41-15-5.86-17.67A10.72,10.72,0,0,0,366,129.15Zm-79,0a10.72,10.72,0,0,0-5.56,1.49c-4.45,2.67-7,10.26-5.85,17.67,2,13.25,13.13,27.28,38,30.87-1.42-14.63-3.85-28-7.92-36-3.47-6.79-9-11.83-14.79-13.49A14.36,14.36,0,0,0,287,129.15Z"/><path class="cls-25" d="M399.54,131.35a5,5,0,0,1-5-5,67.92,67.92,0,0,0-51.26-65.93,5,5,0,1,1,2.47-9.75,78,78,0,0,1,58.85,75.68A5,5,0,0,1,399.54,131.35Z"/><path class="cls-25" d="M324.81,53.15a5,5,0,1,0,5-5A5,5,0,0,0,324.81,53.15Z"/><g class="cls-26"><path class="cls-27" d="M414,131.51c-4.84,35.93-33.85,73.12-87.46,73.12S245,165.7,239.05,131.51a87.17,87.17,0,0,0,16.63,46.41h0c12.51,18.85,45,40.13,45,52.88v14.56a5.26,5.26,0,0,0,5.26,5.27h41.1a5.27,5.27,0,0,0,5.27-5.27V230.8c0-12.75,32.5-34,45-52.88h0A87.17,87.17,0,0,0,414,131.51Z"/></g><path class="cls-11" d="M354.39,237H298.61V263.6a22.87,22.87,0,0,0,3.57,12.26h0A24,24,0,0,0,322.41,287h8.18a24,24,0,0,0,20.24-11.12h0a23,23,0,0,0,3.56-12.26Z"/><path class="cls-28" d="M298.61,254.94a3.85,3.85,0,0,0,.48,0l55.78-5.79a3.34,3.34,0,0,0,3-3.82,3.63,3.63,0,0,0-3.93-3.1L298.14,248a3.33,3.33,0,0,0-3,3.82A3.63,3.63,0,0,0,298.61,254.94Z"/><path class="cls-28" d="M298.61,267.11a3.85,3.85,0,0,0,.48,0l55.78-5.78a3.35,3.35,0,0,0,3-3.82,3.64,3.64,0,0,0-3.93-3.11l-55.77,5.78a3.34,3.34,0,0,0-3,3.83A3.63,3.63,0,0,0,298.61,267.11Z"/><path class="cls-28" d="M300.84,279.15a2.57,2.57,0,0,0,.48,0l52.87-5.48a3.34,3.34,0,0,0,3-3.82,3.63,3.63,0,0,0-3.93-3.1l-52.87,5.48a3.34,3.34,0,0,0-3,3.82A3.65,3.65,0,0,0,300.84,279.15Z"/><line class="cls-29" x1="326.5" y1="1.5" x2="326.5" y2="29.04"/><line class="cls-29" x1="376.16" y1="12.47" x2="365.04" y2="37.66"/><line class="cls-29" x1="418.01" y1="42.93" x2="397.66" y2="61.49"/><line class="cls-29" x1="276.84" y1="12.47" x2="287.97" y2="37.66"/><line class="cls-29" x1="234.99" y1="42.93" x2="255.34" y2="61.49"/><circle class="cls-30" cx="207.45" cy="379.45" r="1.9"/><circle class="cls-30" cx="227.87" cy="379.45" r="1.9"/><circle class="cls-30" cx="488.61" cy="242.35" r="1.9"/><circle class="cls-30" cx="499.3" cy="242.35" r="1.9"/><path class="cls-30" d="M511.88,242.35a1.9,1.9,0,1,1-1.9-1.9A1.9,1.9,0,0,1,511.88,242.35Z"/><circle class="cls-30" cx="478.61" cy="219.29" r="1.9"/><circle class="cls-31" cx="420.18" cy="330.34" r="39.13" transform="translate(-94.91 187.65) rotate(-22.69)"/><circle class="cls-20" cx="420.18" cy="330.34" r="28.31" transform="translate(-62.75 101.32) rotate(-12.8)"/><path class="cls-31" d="M400.73,330.34a19.45,19.45,0,1,0,19.45-19.44A19.45,19.45,0,0,0,400.73,330.34Z"/><path class="cls-20" d="M410,330.34a10.19,10.19,0,1,0,10.19-10.18A10.19,10.19,0,0,0,410,330.34Z"/><polygon class="cls-32" points="418.6 331.92 425 331.92 418.6 325.52 418.6 331.92"/><polygon class="cls-32" points="460.08 290.44 467.4 290.44 467.4 288.6 461.93 288.6 461.93 283.12 460.08 283.12 460.08 290.44"/><polygon class="cls-32" points="463.43 287.09 470.75 287.09 470.75 285.25 465.28 285.25 465.28 279.77 463.43 279.77 463.43 287.09"/><rect class="cls-32" x="411.23" y="307.07" width="62.59" height="1.85" transform="translate(-88.17 403.12) rotate(-45)"/><path class="cls-9" d="M119.21,260.52l-4.83,9.17a19.48,19.48,0,0,1-7.83-2.25c-4.52-2.22-5.83-5.29-5.83-5.29l8.16-10.8"/><path class="cls-9" d="M129.47,243.2c4.49,2.65-2.92,19.4-7,20.46S110.4,256.81,108,250.1s5.32-10.37,9.85-11.74S129.47,243.2,129.47,243.2Z"/><path class="cls-33" d="M126.14,251.32c-.15.27-.29.54-.42.82s.34.65.51.3.27-.61.38-.92-.33-.44-.47-.2Z"/><path class="cls-34" d="M128.63,249.69s-1-1.48-3.58-1"/><path class="cls-20" d="M122.19,257.84l2.86,2s-1.12,2.16-2.14,1.32S122.19,257.84,122.19,257.84Z"/><path class="cls-35" d="M133.5,246.87a41.81,41.81,0,0,1-5.82-2.67c-2.06.43-4.21,2.36-4.26,4.55,0,.5-.07,1.17-.56,1.24-.33,0-.61-.29-.7-.61s-.09-.69-.22-1a1.43,1.43,0,0,0-1.76-.66,2.43,2.43,0,0,0-1.39,1.45c-.68,1.63-1.29,3.6.26,5a2.55,2.55,0,0,1,.68.67c.34.61-.06,1.36-.46,1.93a7.7,7.7,0,0,1-6.74,3.78c-2.57,0-6.83-3.38-7.11-5.07,0-.16-2.48-10.51,2.08-17.1,2.44-3.53,6.74-6.1,11.23-5.73a13.08,13.08,0,0,1,6.55,2.92C132.76,236.92,134.36,244.63,133.5,246.87Z"/><path class="cls-9" d="M129.18,253s.66,5-.33,5.57-3.08-.88-3.08-.88"/><path class="cls-9" d="M131.24,389l-3.66,23.64-.19,7.12,27.92-.14a1.22,1.22,0,0,0,1.22-1.24h0a1.24,1.24,0,0,0-.79-1.15l-12-5.53,4.76-24.56"/><path class="cls-36" d="M157.75,419.28a3.78,3.78,0,0,0-1.33-2.12l-12.77-5.5c-7,2.85-16.14.67-16.14.67l-1.63,9.61a.57.57,0,0,0,.58.57l31.08-.16C158.17,422.35,157.76,419.31,157.75,419.28Z"/><path class="cls-13" d="M146.41,412.21a15.35,15.35,0,0,0-1.8,3"/><path class="cls-13" d="M148,413.17a13,13,0,0,0-1.48,2.57"/><path class="cls-13" d="M149.38,413.87a19.21,19.21,0,0,0-1.39,2.36"/><line class="cls-13" x1="126.05" y1="420.44" x2="157.89" y2="420.28"/><path class="cls-13" d="M126.93,415.74s7.48.15,8.12,4.66"/><path class="cls-13" d="M153.8,416a24.42,24.42,0,0,0-2.47,4.28"/><path class="cls-9" d="M44.59,395.16,21.3,392.38l-7.12-.19.14,27.92a1.23,1.23,0,0,0,1.24,1.22h0a1.22,1.22,0,0,0,1.15-.79l5.54-12,24.13,2.72"/><path class="cls-36" d="M14.62,422.56a3.81,3.81,0,0,0,2.13-1.34l5.5-12.77c-2.86-7-.68-16.14-.68-16.14L12,390.68a.58.58,0,0,0-.57.58l.16,31.08C11.55,423,14.59,422.57,14.62,422.56Z"/><path class="cls-13" d="M21.7,411.22a15,15,0,0,0-3-1.8"/><path class="cls-13" d="M20.73,412.82a13.5,13.5,0,0,0-2.56-1.48"/><path class="cls-13" d="M20,414.18a19,19,0,0,0-2.35-1.38"/><line class="cls-13" x1="13.46" y1="390.85" x2="13.63" y2="422.69"/><path class="cls-13" d="M18.17,391.73s-.16,7.48-4.66,8.13"/><path class="cls-13" d="M17.87,418.6a24.42,24.42,0,0,0-4.28-2.47"/><path class="cls-37" d="M58.45,330.26c-5,13.38,3.16,32.81,3.16,32.81l4.3,31.29-40.84-1.8.41,27.16s43.81,3.12,54.4,3.12,14.69-2.37,17.8-8.58c4.64-9.25-2-60.39-2-61.23l-7.27-32.85"/><line class="cls-38" x1="29.97" y1="392.78" x2="30.28" y2="420.06"/><path class="cls-37" d="M72.61,337.49s-4.63,23.7,18.9,28.79c10.52,2.27,37.26,3,37.26,3l-4.56,36.6h26.7s5.54-27.58,7.2-46c1.11-12.27-4.17-17.76-14.09-19-8.4-1-33.66-2.69-33.66-2.69l-4.25-5.33"/><path class="cls-38" d="M96.79,367.13S77,367.19,72.24,345"/><path class="cls-38" d="M82.69,342.9a54.08,54.08,0,0,0,12.34.56"/><path class="cls-38" d="M56.83,339.76a39.66,39.66,0,0,0,8.71,1.48"/><line class="cls-38" x1="125.97" y1="401.14" x2="151.9" y2="401.14"/><rect class="cls-30" x="179.29" y="300.1" width="2.13" height="23.24"/><circle class="cls-30" cx="180.36" cy="297.75" r="3.92"/><path class="cls-9" d="M160.69,304.42l7.88.58s6.07-2,8.48-2.09a3.11,3.11,0,0,1,2.24.74V306c0,1.58,2.13,2.28,2.13,1.21v-1.31c0,.08,4.37,2.15,1.82,4.11,1.2.25,1.83,1.92-.44,3.07a1.66,1.66,0,0,1-.11,2.95c.74,1.12-.76,2.35-1.95,2.61-2.25.49-20.29.11-20.29.11"/><path class="cls-36" d="M114.68,268.82c12.95,17.92,6,23.73-3.31,69.43a275.79,275.79,0,0,1-54.88-5.38A349.92,349.92,0,0,1,77.61,282.2c6.55-12.73,17.42-19.07,23.58-20.69"/><path class="cls-36" d="M95,289s20,31.34,29.53,32.73c15.1,2.21,40.07,1.59,40.07,1.59l1.49-22.05s-32.1-1.62-33.42-2.38c-4.3-2.44-18-30-18-30"/><path class="cls-13" d="M116.34,316A88.36,88.36,0,0,1,96.79,291.1"/><line class="cls-13" x1="161.49" y1="301" x2="159.6" y2="323.37"/><path class="cls-9" d="M586.19,266.39c-.49,4.29-3.93,16.46-3.21,17s2-3.76,2.5-3.23-1,7.23-.13,7.55c1.16.43,2.33-6.52,2.33-6.52s-.9,7.67.21,7.75c.79.06,1.75-5.76,2.4-7.94-.4,2.45-.58,6.5.24,6.54s1.55-3.91,2.28-6.9c-.28,1.91-.6,5.42.16,5.49s3.21-9.4,5.18-18.42"/><path class="cls-9" d="M600.13,207.63s6.93,12.32,7.93,19.87c2.47,18.62-13,50.15-13,50.15s-11.22-3.06-11.22-4.47,7.82-34.54,7.82-34.54l-11.22-25.9"/><path class="cls-9" d="M566.43,167.2l1.5,13.89s-8.32,7-15.69-.85l.9-9.14Z"/><path class="cls-9" d="M554.81,153.3s-9,12.4-5.33,17c2.72,3.44,9.84,3.83,12,2.48.47-2.54,6.31-10.94,5.37-12.81C563.33,152.88,554.81,153.3,554.81,153.3Z"/><path class="cls-35" d="M568.84,155.44c-.29-4.69-4.92-6.06-13.8-5.53-1.18.07-3.3-.74-3.85.32-.72,1.39-.85,4.2.55,5.46a5.08,5.08,0,0,0,2.77,1.31c1.61.38,3.25,1.91,2.39,3.59-.22.45-.75,1.19-.41,1.56a4.6,4.6,0,0,0,1,.5c.64.35.6,1.32.2,1.92s-.22,1.28-.62,1.88c-.95,1.43.18,4.07,1.65,4.94,1.31.78,5.59,2.07,8.73.44,2.72-1.41,4.35-5.24,4.38-12.15C571.79,157,569.83,155.26,568.84,155.44Z"/><path class="cls-9" d="M555.8,162.53c1.46-1.86,2.64-1.56,3.29-.54.86,1.36-.87,4.18-1.67,4.66-1.63,1-3,.87-3.08-.45"/><path class="cls-11" d="M552.19,159.69c-.42.35-.82,1-.58,1.44a.3.3,0,0,0,.33.18C552.88,161.22,553.06,159,552.19,159.69Z"/><path class="cls-39" d="M552.3,158a3.5,3.5,0,0,1,1.89,1.48"/><path class="cls-20" d="M552.29,166.31l-2.06-1.11s-1.35,2.53-.39,3.07S552.29,166.31,552.29,166.31Z"/><rect class="cls-40" x="521.25" y="421.37" width="32.51" height="1.46" transform="translate(1075.33 843.79) rotate(179.96)"/><path class="cls-37" d="M549.13,409.36l2.81.66a64,64,0,0,1,1.49,6.23,30.12,30.12,0,0,1,.32,5.11l-32.5,0s.85-2.82,8.6-7.37a17,17,0,0,0,4.62-3.83Z"/><path class="cls-41" d="M552.47,397.66,551.94,410s-1.36,1.65-6.88,1.66a42.48,42.48,0,0,1-10.59-1.49l-1.09-16.68"/><rect class="cls-40" x="567.55" y="421.37" width="32.51" height="1.46" transform="translate(1167.93 843.75) rotate(179.96)"/><path class="cls-37" d="M595.43,409.36l2.81.66a64,64,0,0,1,1.49,6.23,30.12,30.12,0,0,1,.32,5.11l-32.5,0s.85-2.82,8.6-7.37a16.89,16.89,0,0,0,4.61-3.83Z"/><path class="cls-41" d="M597.14,397.16l1.1,12.86s-1.36,1.65-6.88,1.66a42.61,42.61,0,0,1-10.6-1.49l-2.5-16.68"/><path class="cls-42" d="M591.9,269.27s5.07,10.55,1,30.75c2.07,45.11,7.46,105.75,7.46,105.75l-31-.11s-6.31-65.18-10.07-97.67c-4.18-36.18-6.79-80.49-6.79-80.49"/><path class="cls-43" d="M574.39,405.66s-6.31-65.18-10.07-97.67"/><path class="cls-42" d="M532.76,271.29s-3.29,47.55-3.29,70.37S528,405.77,528,405.77h31.3L571,297.83c9.54-11.42,8.84-36.22,6.54-45.87l-31-8.48Z"/><path class="cls-43" d="M564.56,357.1l6.4-59.27a33.19,33.19,0,0,0,8-20.18"/><line class="cls-43" x1="539.3" y1="266.51" x2="531.89" y2="405.77"/><line class="cls-43" x1="559.86" y1="279.06" x2="575.06" y2="279.36"/><line class="cls-43" x1="585.9" y1="278.58" x2="591.68" y2="278.46"/><path class="cls-9" d="M506.37,198.85c-4.24-4.8-15.63-23.06-16.91-22.77s2.16,5.94,1.07,6-7-8.29-8.19-7.67c-1.63.86,4.86,9.07,4.86,9.07s-2.54-3.49-3.74-2.34c-.85.81-.4,2.52,1.36,5.4-1.18-1.47-2.3-1.73-3.16-.87s0,2.43,1,4c-.84-1-2-1.56-2.37-.48-.4,1.42,3,8.79,11.19,20.81"/><path class="cls-44" d="M567.78,179.67s17.94.75,23.32,21.17c2.42,9.2,4,72.32,4,72.32l-65.54-.44s.87-57.06,2.34-69.41c2.68-22.58,20.45-24,20.45-24s.81,2,7.76,2S567.78,179.67,567.78,179.67Z"/><path class="cls-44" d="M567.78,179.67c21.29,0,34.4,29.25,34.4,29.25l-13.39,6.72"/><path class="cls-9" d="M539.66,221.16s-11.37,16.35-20.54,17.24c-12.33,1.19-34.26-39.85-34.26-39.85l13.84-9.35L517.65,213l6.46-9.66"/><path class="cls-44" d="M552.33,179.32c-18.33,1-31.74,28.31-31.74,28.31L542.05,223l12.18-15.89"/><line class="cls-45" x1="541.3" y1="222.5" x2="551.68" y2="208.99"/><path class="cls-45" d="M592.9,213.58a76.83,76.83,0,0,0-4.11-15.92"/><path class="cls-9" d="M551.41,160.73s-2.95,1.42-2.8,2a10.29,10.29,0,0,0,1,1.85"/><line class="cls-43" x1="528.01" y1="398.98" x2="559.86" y2="398.98"/><line class="cls-43" x1="568.74" y1="399.25" x2="599.72" y2="399.25"/></g></g></g></svg>