<svg xmlns="http://www.w3.org/2000/svg" xmlns:xlink="http://www.w3.org/1999/xlink" viewBox="0 0 2916.1 2754"><defs><style>.cls-1{fill:none;}.cls-2{isolation:isolate;}.cls-17,.cls-26,.cls-3,.cls-31{fill:#f4f7fa;}.cls-4{fill:url(#linear-gradient);}.cls-15,.cls-26,.cls-31,.cls-5{mix-blend-mode:soft-light;}.cls-6{clip-path:url(#clip-path);}.cls-10,.cls-7{fill:#fcfdfe;}.cls-8{fill:url(#linear-gradient-2);}.cls-9{clip-path:url(#clip-path-2);}.cls-10{opacity:0.35;}.cls-11{fill:url(#linear-gradient-3);}.cls-12{clip-path:url(#clip-path-3);}.cls-13{clip-path:url(#clip-path-4);}.cls-14{fill:url(#linear-gradient-4);}.cls-15,.cls-33{fill:#fff;}.cls-16{fill:#beb8f2;}.cls-17{opacity:0.75;}.cls-18{fill:url(#linear-gradient-5);}.cls-19{fill:url(#linear-gradient-6);}.cls-20,.cls-22,.cls-30,.cls-88,.cls-93{opacity:0.3;}.cls-20,.cls-22,.cls-30,.cls-39,.cls-40,.cls-41,.cls-42,.cls-88,.cls-93,.cls-95,.cls-99{mix-blend-mode:multiply;}.cls-20{fill:url(#linear-gradient-7);}.cls-21{fill:url(#linear-gradient-8);}.cls-22{fill:url(#linear-gradient-9);}.cls-23{fill:url(#linear-gradient-10);}.cls-24{fill:url(#linear-gradient-11);}.cls-25{fill:url(#linear-gradient-12);}.cls-26{opacity:0.5;}.cls-27{fill:url(#linear-gradient-13);}.cls-28{fill:url(#linear-gradient-14);}.cls-29{fill:url(#linear-gradient-15);}.cls-30{fill:url(#linear-gradient-16);}.cls-31{opacity:0.44;}.cls-32{fill:url(#linear-gradient-17);}.cls-34{fill:url(#linear-gradient-18);}.cls-35{fill:url(#linear-gradient-19);}.cls-36{fill:url(#linear-gradient-20);}.cls-37{fill:url(#linear-gradient-21);}.cls-38{fill:url(#linear-gradient-22);}.cls-39,.cls-40,.cls-41,.cls-42{opacity:0.15;}.cls-39{fill:url(#linear-gradient-23);}.cls-40{fill:url(#linear-gradient-24);}.cls-41{fill:url(#linear-gradient-25);}.cls-42{fill:url(#linear-gradient-26);}.cls-43{fill:url(#linear-gradient-27);}.cls-44{fill:url(#linear-gradient-28);}.cls-45{fill:url(#linear-gradient-29);}.cls-46{fill:url(#linear-gradient-30);}.cls-47{fill:url(#linear-gradient-31);}.cls-48{fill:url(#linear-gradient-32);}.cls-49{fill:url(#linear-gradient-33);}.cls-50{fill:url(#linear-gradient-34);}.cls-51{fill:url(#linear-gradient-35);}.cls-52{fill:url(#linear-gradient-36);}.cls-53{fill:#fcb048;}.cls-54{fill:url(#linear-gradient-37);}.cls-55{fill:url(#linear-gradient-38);}.cls-56{fill:url(#linear-gradient-39);}.cls-57{fill:url(#linear-gradient-40);}.cls-58{fill:url(#linear-gradient-41);}.cls-59{fill:url(#linear-gradient-42);}.cls-60{fill:url(#linear-gradient-43);}.cls-61{fill:url(#linear-gradient-44);}.cls-62{fill:url(#linear-gradient-45);}.cls-63{fill:url(#linear-gradient-46);}.cls-64{fill:url(#linear-gradient-47);}.cls-65{fill:url(#linear-gradient-48);}.cls-66{fill:url(#linear-gradient-49);}.cls-67{fill:url(#linear-gradient-50);}.cls-68{fill:url(#linear-gradient-51);}.cls-69{fill:url(#linear-gradient-52);}.cls-70{fill:url(#linear-gradient-53);}.cls-71{fill:url(#linear-gradient-54);}.cls-72{fill:url(#linear-gradient-55);}.cls-73{fill:url(#linear-gradient-56);}.cls-74{fill:url(#linear-gradient-57);}.cls-75{fill:url(#linear-gradient-58);}.cls-76{fill:url(#linear-gradient-59);}.cls-77{fill:url(#linear-gradient-60);}.cls-78{fill:url(#linear-gradient-61);}.cls-79{fill:url(#linear-gradient-62);}.cls-80{fill:url(#linear-gradient-63);}.cls-81{fill:url(#linear-gradient-64);}.cls-82{fill:url(#linear-gradient-65);}.cls-83{fill:url(#linear-gradient-66);}.cls-84{fill:url(#linear-gradient-67);}.cls-85{fill:url(#linear-gradient-68);}.cls-86{fill:url(#linear-gradient-69);}.cls-87{fill:url(#linear-gradient-70);}.cls-88{fill:url(#linear-gradient-71);}.cls-89{fill:url(#linear-gradient-72);}.cls-90{fill:url(#linear-gradient-73);}.cls-91{fill:url(#linear-gradient-74);}.cls-92{fill:url(#linear-gradient-75);}.cls-93{fill:url(#linear-gradient-76);}.cls-94{fill:url(#linear-gradient-77);}.cls-95{opacity:0.2;}.cls-96{fill:url(#linear-gradient-78);}.cls-97{fill:url(#linear-gradient-79);}.cls-98{fill:url(#linear-gradient-80);}.cls-99{opacity:0.1;fill:url(#linear-gradient-81);}.cls-100{fill:url(#linear-gradient-82);}.cls-101{fill:url(#linear-gradient-83);}</style><linearGradient id="linear-gradient" x1="1284.49" y1="218.06" x2="2422.03" y2="2090.75" gradientTransform="matrix(-0.31, 0.95, 0.95, 0.31, 434.94, -370.55)" gradientUnits="userSpaceOnUse"><stop offset="0" stop-color="#aa80f9"/><stop offset="1" stop-color="#6165d7"/></linearGradient><clipPath id="clip-path"><path class="cls-1" d="M1046,2285.59c-176.76,43.29-376.25,93.22-433.8-146.55-47.92-199.6-70.18-335-286.52-431.38S-23.54,1399.68,103,1200.1c133.2-210,6-561.49,237-681.38,402.46-208.91,471.12,410.61,455.8,742.22s218.76,237.47,425,273.7C1502.42,1584.11,1188.79,2250.61,1046,2285.59Z"/></clipPath><linearGradient id="linear-gradient-2" x1="2525.27" y1="1260.17" x2="1065.69" y2="3298.17" gradientUnits="userSpaceOnUse"><stop offset="0" stop-color="#e38ddd"/><stop offset="1" stop-color="#9571f6"/></linearGradient><clipPath id="clip-path-2"><path class="cls-1" d="M1365.59,2031.05c-29.89,99.65-64.41,199.81-95.06,300,45.93,37.62,100.86,80.75,153,28.39,72.53-72.81,239.09-4.93,308.4,40.61,85.8,56.35,282.56,160.94,325.81,16.32,36-120.39,10.45-208.84,163.34-194.83s255.71-40.85,275.93-179.93c21.27-146.37,230.18-220,173.12-362.39-99.41-248.08-456.31-26.78-564.2,155s-176.74,78.63-311.87,35.55c-184.49-58.81-152.14,171.47-255,200.47C1458.38,2092.93,1430.49,2059.28,1365.59,2031.05Z"/></clipPath><linearGradient id="linear-gradient-3" x1="-292.94" y1="1328.79" x2="-1752.51" y2="3366.79" gradientTransform="matrix(-1, 0, 0, 1, -126.52, 0)" xlink:href="#linear-gradient-2"/><clipPath id="clip-path-3"><path class="cls-1" d="M1326.09,2099.67c29.89,99.65,64.41,199.82,95.05,300-45.92,37.62-100.85,80.75-153,28.39-72.53-72.8-239.09-4.92-308.4,40.61C873.92,2525,677.16,2629.61,633.91,2485c-36-120.38-10.45-208.84-163.34-194.83s-255.71-40.85-275.93-179.93c-21.27-146.36-230.18-220-173.12-362.39,99.41-248.08,456.31-26.77,564.2,155s176.74,78.63,311.87,35.56c184.48-58.81,152.14,171.47,255,200.46C1233.3,2161.55,1261.19,2127.9,1326.09,2099.67Z"/></clipPath><clipPath id="clip-path-4"><path class="cls-1" d="M1489.88,2509.37q-116.36-85.35-230.07-176.15c-1.84.47,44.57-191.68,168.32-238.37,243.16-88.6,196.62-312.13,203.93-425.6,4.15-163.37,98.73-313.23,236.55-200.56,135.7,106.28,281.58-180.24,351.51-424.06C2244.87,920.9,2408,843.16,2527.41,870.09c123.07,24.8,202.53,154.28,143.41,395.57-56.6,285.82-311.82,337.93-436.07,429.08-122.14,89.39-3.11,280.21-179.87,322.14-150.88,40.61-318.6,37.57-320.22,190.79C1735,2360.22,1680.51,2455.13,1489.88,2509.37Z"/></clipPath><linearGradient id="linear-gradient-4" x1="5256.33" y1="3530.47" x2="4642.71" y2="5274.44" gradientTransform="matrix(-0.64, -0.93, -0.82, 0.57, 8789.67, 3798.05)" gradientUnits="userSpaceOnUse"><stop offset="0" stop-color="#ff9085"/><stop offset="1" stop-color="#fb6fbb"/></linearGradient><linearGradient id="linear-gradient-5" x1="1517.99" y1="2765.44" x2="1534.03" y2="2637.14" gradientUnits="userSpaceOnUse"><stop offset="0" stop-color="#26264f"/><stop offset="1" stop-color="#444b8c"/></linearGradient><linearGradient id="linear-gradient-6" x1="1452.03" y1="2648.51" x2="1612.41" y2="2359.82" xlink:href="#linear-gradient-5"/><linearGradient id="linear-gradient-7" x1="1270.65" y1="2511.7" x2="1802.94" y2="2511.7" xlink:href="#linear-gradient-5"/><linearGradient id="linear-gradient-8" x1="1467.3" y1="2569.62" x2="1625.67" y2="2264.9" xlink:href="#linear-gradient-5"/><linearGradient id="linear-gradient-9" x1="1246.8" y1="2421.99" x2="1826.53" y2="2421.99" xlink:href="#linear-gradient-5"/><linearGradient id="linear-gradient-10" x1="1238.22" y1="2317.24" x2="1835.38" y2="2317.24" xlink:href="#linear-gradient-5"/><linearGradient id="linear-gradient-11" x1="1521.97" y1="2272.2" x2="1580.77" y2="1996.88" xlink:href="#linear-gradient-5"/><linearGradient id="linear-gradient-12" x1="1409.04" y1="735.96" x2="2575.73" y2="2588.24" gradientUnits="userSpaceOnUse"><stop offset="0" stop-color="#fcb148"/><stop offset="0.05" stop-color="#fdba46"/><stop offset="0.14" stop-color="#ffc244"/><stop offset="0.32" stop-color="#ffc444"/><stop offset="0.48" stop-color="#fdb946"/><stop offset="0.78" stop-color="#f99c4d"/><stop offset="0.87" stop-color="#f8924f"/><stop offset="1" stop-color="#f8924f"/></linearGradient><linearGradient id="linear-gradient-13" x1="1195.9" y1="2162.2" x2="1433.79" y2="1467.22" gradientUnits="userSpaceOnUse"><stop offset="0.49" stop-color="#ebeff2"/><stop offset="1" stop-color="#fff"/></linearGradient><linearGradient id="linear-gradient-14" x1="1423.33" y1="2240.05" x2="1661.23" y2="1545.07" xlink:href="#linear-gradient-13"/><linearGradient id="linear-gradient-15" x1="1113.06" y1="2133.84" x2="1350.95" y2="1438.86" xlink:href="#linear-gradient-13"/><linearGradient id="linear-gradient-16" x1="1449.98" y1="318.45" x2="1217.43" y2="2234.97" xlink:href="#linear-gradient-12"/><linearGradient id="linear-gradient-17" x1="668.73" y1="2271.06" x2="628.48" y2="3127.41" gradientTransform="translate(150.66 8.29) rotate(-4.57)" gradientUnits="userSpaceOnUse"><stop offset="0" stop-color="#444b8c"/><stop offset="1" stop-color="#26264f"/></linearGradient><linearGradient id="linear-gradient-18" x1="1040.67" y1="1228.09" x2="882.28" y2="1817.66" gradientUnits="userSpaceOnUse"><stop offset="0" stop-color="#893976"/><stop offset="1" stop-color="#311944"/></linearGradient><linearGradient id="linear-gradient-19" x1="977.83" y1="1282.97" x2="1074.63" y2="843" xlink:href="#linear-gradient-5"/><linearGradient id="linear-gradient-20" x1="1075.81" y1="1229.04" x2="591.37" y2="1950.1" gradientUnits="userSpaceOnUse"><stop offset="0" stop-color="#be3976"/><stop offset="1" stop-color="#311944"/></linearGradient><linearGradient id="linear-gradient-21" x1="1020.19" y1="1292.29" x2="1116.98" y2="852.32" xlink:href="#linear-gradient-5"/><linearGradient id="linear-gradient-22" x1="1098.29" y1="1243.57" x2="939.9" y2="1833.14" xlink:href="#linear-gradient-18"/><linearGradient id="linear-gradient-23" x1="4590.35" y1="2679.69" x2="4174.55" y2="1410.61" gradientTransform="matrix(-1, 0.04, 0.04, 1, 5456.97, -21.99)" xlink:href="#linear-gradient"/><linearGradient id="linear-gradient-24" x1="4796.93" y1="2210.14" x2="4104.83" y2="1568.38" gradientTransform="matrix(-1, 0.07, 0.07, 1, 5568.86, -42.28)" xlink:href="#linear-gradient"/><linearGradient id="linear-gradient-25" x1="4535.1" y1="2332.89" x2="4559.29" y2="1584.86" gradientTransform="matrix(-1, 0.04, 0.04, 1, 5456.97, -21.99)" xlink:href="#linear-gradient"/><linearGradient id="linear-gradient-26" x1="4992.07" y1="2683.65" x2="5036.62" y2="1306.03" gradientTransform="matrix(-1, 0.04, 0.04, 1, 5456.97, -21.99)" xlink:href="#linear-gradient"/><linearGradient id="linear-gradient-27" x1="772.34" y1="1859.54" x2="801.68" y2="2150.9" xlink:href="#linear-gradient-18"/><linearGradient id="linear-gradient-28" x1="1315.02" y1="1804.9" x2="1344.35" y2="2096.27" xlink:href="#linear-gradient-18"/><linearGradient id="linear-gradient-29" x1="3438.71" y1="1383.61" x2="3456.65" y2="1646.44" gradientTransform="translate(-2570.46 283.25) rotate(-5.72)" xlink:href="#linear-gradient-17"/><linearGradient id="linear-gradient-30" x1="3385.21" y1="1929.97" x2="3385.21" y2="1297.21" gradientTransform="translate(-2570.46 283.25) rotate(-5.72)" xlink:href="#linear-gradient-17"/><linearGradient id="linear-gradient-31" x1="8362.56" y1="-1709.26" x2="8362.56" y2="-2602.28" gradientTransform="translate(-1636.13 -5555.16) rotate(84.28)" xlink:href="#linear-gradient-17"/><linearGradient id="linear-gradient-32" x1="-4151.91" y1="-871.77" x2="-4447.1" y2="-1026.08" gradientTransform="translate(2038.32 -1722.11) rotate(-90)" gradientUnits="userSpaceOnUse"><stop offset="0" stop-color="#ffc444"/><stop offset="1" stop-color="#f36f56"/></linearGradient><linearGradient id="linear-gradient-33" x1="-4416.2" y1="-1002.33" x2="-4116.15" y2="-894.96" xlink:href="#linear-gradient-32"/><linearGradient id="linear-gradient-34" x1="1900.93" y1="2634.51" x2="2559.47" y2="2634.51" gradientUnits="userSpaceOnUse"><stop offset="0" stop-color="#f57e53"/><stop offset="0" stop-color="#f68252"/><stop offset="0.04" stop-color="#f99a4d"/><stop offset="0.08" stop-color="#fcad49"/><stop offset="0.13" stop-color="#feba46"/><stop offset="0.2" stop-color="#ffc244"/><stop offset="0.32" stop-color="#ffc444"/><stop offset="0.45" stop-color="#fdb946"/><stop offset="0.69" stop-color="#f99c4c"/><stop offset="1" stop-color="#f36f56"/></linearGradient><linearGradient id="linear-gradient-35" x1="2233.23" y1="2560.32" x2="2267.94" y2="2850.96" gradientUnits="userSpaceOnUse"><stop offset="0" stop-color="#ffdb44"/><stop offset="1" stop-color="#feef06"/></linearGradient><linearGradient id="linear-gradient-36" x1="2231.72" y1="2547.36" x2="2242.38" y2="2636.62" xlink:href="#linear-gradient-35"/><linearGradient id="linear-gradient-37" x1="-1473.03" y1="493.12" x2="-1462.41" y2="582.06" gradientTransform="translate(768.7 3120.38) rotate(180)" gradientUnits="userSpaceOnUse"><stop offset="0" stop-color="#f36f56"/><stop offset="0.31" stop-color="#f99c4c"/><stop offset="0.55" stop-color="#fdb946"/><stop offset="0.68" stop-color="#ffc444"/><stop offset="0.8" stop-color="#ffc244"/><stop offset="0.87" stop-color="#feba46"/><stop offset="0.92" stop-color="#fcad49"/><stop offset="0.96" stop-color="#f99a4d"/><stop offset="1" stop-color="#f68252"/><stop offset="1" stop-color="#f57e53"/></linearGradient><linearGradient id="linear-gradient-38" x1="1821.36" y1="2567.82" x2="2479.9" y2="2567.82" xlink:href="#linear-gradient-34"/><linearGradient id="linear-gradient-39" x1="2153.66" y1="2493.64" x2="2188.38" y2="2784.28" xlink:href="#linear-gradient-35"/><linearGradient id="linear-gradient-40" x1="2152.15" y1="2480.68" x2="2162.81" y2="2569.94" xlink:href="#linear-gradient-35"/><linearGradient id="linear-gradient-41" x1="-1393.47" y1="559.8" x2="-1382.85" y2="648.74" xlink:href="#linear-gradient-37"/><linearGradient id="linear-gradient-42" x1="1890.02" y1="2501.34" x2="2548.56" y2="2501.34" xlink:href="#linear-gradient-34"/><linearGradient id="linear-gradient-43" x1="2222.31" y1="2427.16" x2="2257.03" y2="2717.79" xlink:href="#linear-gradient-35"/><linearGradient id="linear-gradient-44" x1="2220.8" y1="2414.2" x2="2231.47" y2="2503.45" xlink:href="#linear-gradient-35"/><linearGradient id="linear-gradient-45" x1="-1462.12" y1="626.28" x2="-1451.5" y2="715.23" xlink:href="#linear-gradient-37"/><linearGradient id="linear-gradient-46" x1="1931.68" y1="2434.66" x2="2590.22" y2="2434.66" xlink:href="#linear-gradient-34"/><linearGradient id="linear-gradient-47" x1="2263.98" y1="2360.48" x2="2298.69" y2="2651.11" xlink:href="#linear-gradient-35"/><linearGradient id="linear-gradient-48" x1="2262.47" y1="2347.51" x2="2273.13" y2="2436.77" xlink:href="#linear-gradient-35"/><linearGradient id="linear-gradient-49" x1="-1503.78" y1="692.96" x2="-1493.16" y2="781.91" xlink:href="#linear-gradient-37"/><linearGradient id="linear-gradient-50" x1="1900.93" y1="2362.72" x2="2559.47" y2="2362.72" xlink:href="#linear-gradient-34"/><linearGradient id="linear-gradient-51" x1="2233.23" y1="2288.53" x2="2267.94" y2="2579.17" xlink:href="#linear-gradient-35"/><linearGradient id="linear-gradient-52" x1="2231.72" y1="2275.57" x2="2242.38" y2="2364.83" xlink:href="#linear-gradient-35"/><linearGradient id="linear-gradient-53" x1="-1473.03" y1="764.91" x2="-1462.41" y2="853.85" xlink:href="#linear-gradient-37"/><linearGradient id="linear-gradient-54" x1="1821.36" y1="2296.03" x2="2479.9" y2="2296.03" xlink:href="#linear-gradient-34"/><linearGradient id="linear-gradient-55" x1="2153.66" y1="2221.85" x2="2188.38" y2="2512.49" xlink:href="#linear-gradient-35"/><linearGradient id="linear-gradient-56" x1="2152.15" y1="2208.89" x2="2162.81" y2="2298.15" xlink:href="#linear-gradient-35"/><linearGradient id="linear-gradient-57" x1="-1393.47" y1="831.59" x2="-1382.85" y2="920.53" xlink:href="#linear-gradient-37"/><linearGradient id="linear-gradient-58" x1="1890.02" y1="2229.55" x2="2548.56" y2="2229.55" xlink:href="#linear-gradient-34"/><linearGradient id="linear-gradient-59" x1="2222.31" y1="2155.37" x2="2257.03" y2="2446" xlink:href="#linear-gradient-35"/><linearGradient id="linear-gradient-60" x1="2220.8" y1="2142.41" x2="2231.47" y2="2231.66" xlink:href="#linear-gradient-35"/><linearGradient id="linear-gradient-61" x1="-1462.12" y1="898.07" x2="-1451.5" y2="987.02" xlink:href="#linear-gradient-37"/><linearGradient id="linear-gradient-62" x1="1854.31" y1="2162.87" x2="2512.85" y2="2162.87" xlink:href="#linear-gradient-34"/><linearGradient id="linear-gradient-63" x1="2186.6" y1="2088.69" x2="2221.32" y2="2379.32" xlink:href="#linear-gradient-35"/><linearGradient id="linear-gradient-64" x1="2185.09" y1="2075.72" x2="2195.76" y2="2164.98" xlink:href="#linear-gradient-35"/><linearGradient id="linear-gradient-65" x1="-1426.41" y1="964.75" x2="-1415.79" y2="1053.7" xlink:href="#linear-gradient-37"/><linearGradient id="linear-gradient-66" x1="2316.59" y1="576.22" x2="2975.13" y2="576.22" gradientTransform="matrix(0.58, 0.81, -0.81, 0.58, 1614.59, -75.18)" xlink:href="#linear-gradient-34"/><linearGradient id="linear-gradient-67" x1="2648.89" y1="502.04" x2="2683.6" y2="792.64" gradientTransform="matrix(0.58, 0.81, -0.81, 0.58, 1614.59, -75.18)" xlink:href="#linear-gradient-35"/><linearGradient id="linear-gradient-68" x1="2647.38" y1="489.09" x2="2658.04" y2="578.33" gradientTransform="matrix(0.58, 0.81, -0.81, 0.58, 1614.59, -75.18)" xlink:href="#linear-gradient-35"/><linearGradient id="linear-gradient-69" x1="-1888.13" y1="2550.95" x2="-1877.51" y2="2639.88" gradientTransform="matrix(-0.58, -0.81, 0.81, -0.58, -481.96, 2360)" xlink:href="#linear-gradient-37"/><linearGradient id="linear-gradient-70" x1="1196.49" y1="789.28" x2="2143.96" y2="789.28" xlink:href="#linear-gradient-2"/><linearGradient id="linear-gradient-71" x1="1265.75" y1="582.89" x2="2000.93" y2="1551.12" xlink:href="#linear-gradient-2"/><linearGradient id="linear-gradient-72" x1="2199.61" y1="1769.26" x2="2208.96" y2="1630.06" gradientUnits="userSpaceOnUse"><stop offset="0.1" stop-color="#311944"/><stop offset="0.27" stop-color="#371b47"/><stop offset="0.48" stop-color="#462150"/><stop offset="0.72" stop-color="#612a5f"/><stop offset="0.97" stop-color="#853774"/><stop offset="1" stop-color="#893976"/></linearGradient><linearGradient id="linear-gradient-73" x1="2147.19" y1="1668.98" x2="2254.13" y2="1726.31" xlink:href="#linear-gradient-72"/><linearGradient id="linear-gradient-74" x1="1995.2" y1="1847.96" x2="1934.07" y2="1289.23" gradientUnits="userSpaceOnUse"><stop offset="0.1" stop-color="#311944"/><stop offset="0.69" stop-color="#6d2f66"/><stop offset="1" stop-color="#893976"/></linearGradient><linearGradient id="linear-gradient-75" x1="2261.14" y1="2079.81" x2="1856.37" y2="1854.42" gradientUnits="userSpaceOnUse"><stop offset="0" stop-color="#311944"/><stop offset="1" stop-color="#893976"/></linearGradient><linearGradient id="linear-gradient-76" x1="1895.88" y1="1766.21" x2="2017.94" y2="1970.9" xlink:href="#linear-gradient-75"/><linearGradient id="linear-gradient-77" x1="2206.89" y1="1522.04" x2="2251.41" y2="2119.53" xlink:href="#linear-gradient-74"/><linearGradient id="linear-gradient-78" x1="2127.81" y1="1860.27" x2="2455.62" y2="2112.85" xlink:href="#linear-gradient-75"/><linearGradient id="linear-gradient-79" x1="2043.37" y1="1826" x2="2181.41" y2="1820.64" xlink:href="#linear-gradient-74"/><linearGradient id="linear-gradient-80" x1="2258.23" y1="2289.03" x2="2210.3" y2="1750.37" xlink:href="#linear-gradient-72"/><linearGradient id="linear-gradient-81" x1="2281.59" y1="2413.98" x2="2200.3" y2="1670.86" xlink:href="#linear-gradient-75"/><linearGradient id="linear-gradient-82" x1="2396.22" y1="2022.38" x2="2151.09" y2="1894.24" gradientTransform="matrix(1, 0, 0, 1, 0, 0)" xlink:href="#linear-gradient-32"/><linearGradient id="linear-gradient-83" x1="2176.46" y1="1913.95" x2="2426.64" y2="2003.47" gradientTransform="matrix(1, 0, 0, 1, 0, 0)" xlink:href="#linear-gradient-32"/></defs><title>Asset 12</title><g class="cls-2"><g id="Layer_2" data-name="Layer 2"><g id="Illustration"><g id="Business_idea_1" data-name="Business idea 1"><path class="cls-3" d="M1980,58.69C1761.92,12.3,1535.17-9.94,1313.47,4.23,1117,16.8,894.22,51.09,736.09,173.92c-75.36,58.54-165.22,163.72-189.87,256.52,0,0-129.75,488.43-389.24,593.09S-282.72,2914.45,1685.1,2740c0,0,1155.8-45.71,1225.39-1362.34,16.81-318.06,7.42-667.72-194-933.67-154.33-203.8-370.56-294.41-619-357.82Q2039.25,71.33,1980,58.69Z"/><path class="cls-4" d="M797.49,1256.65c-9,305,173.72,281.54,408.28,261.85-101.5,265.4-190.55,527.56-280,793.92-157.18,10.86-270,15.7-313.29-170.6-49-210.71-70.29-333.93-286.72-433.5s-349.71-306.83-222.58-508.25c133.78-212,4.48-558.65,236.87-681.52C745,304.47,806.83,939.1,797.49,1256.65Z"/><g class="cls-5"><g class="cls-6"><path class="cls-7" d="M988.2,1957.82c-199.65-162-361.51-302.56-476.43-511.6-57.78-105.11-93.53-208.83-109.29-317.1-14.69-100.92-12.91-207.38,5.6-335.06,19.34-133.45,18.12-231.24,14-365.18l3-.09c4.08,134.1,5.31,232-14.07,365.71-18.47,127.37-20.25,233.56-5.6,334.19,15.7,107.9,51.34,211.29,108.95,316.08,114.65,208.56,276.29,348.9,475.68,510.7Z"/><path class="cls-7" d="M617.28,2252.51l-1.84-2.39c67-51.59,135.23-90.3,208.59-118.36,37.5-14.33,74.15-21.43,117.66-27.67l.43,3c-43.31,6.21-79.78,13.27-117,27.51C752,2162.53,684.05,2201.11,617.28,2252.51Z"/><path class="cls-7" d="M589,1569.19c-77.38-63-169.65-112.12-274.23-145.89-97.65-31.53-201.28-48.36-308-50l0-3c107,1.66,210.94,18.53,308.88,50.15,104.94,33.89,197.53,83.15,275.21,146.42Z"/><path class="cls-7" d="M399.16,1075.29l-3-.34c2.55-22.7,75.19-200.86,142.32-360,67.4-159.79,142-330.9,150.25-340.63l2.3,1.95C684,384.64,616.77,537.1,541.26,716.12,474.22,875.07,401.68,1052.9,399.16,1075.29Z"/></g></g><path class="cls-8" d="M1386.82,2363.55c-11.24-10.14-26.75-42.1-27.35-52.1-4-66.53-19.72-190.62,23.73-246.1,7.42-9.48,57.91,11.91,70.38,7.12,35.5,5.82,47.46,10.05,83.93-1,107.68-32.61,70.61-259.46,256.38-201.59,136.07,42.38,203.86,146.29,312-35.65s464.78-403,564.27-155c57.1,142.32-151.89,216-173.13,362.4-20.18,139.08-123,193.91-275.93,179.92s-127.24,74.4-163.35,194.85c-43.39,144.69-239.59,39.84-326-16.29C1662.1,2354.9,1454.33,2286.77,1386.82,2363.55Z"/><g class="cls-9"><path class="cls-10" d="M1553.86,2208.7a1217.09,1217.09,0,0,1-184.46-14.06l.54-3.56c246.17,37.71,497.25-1,726.08-112,217.75-105.58,411.93-273.84,561.55-486.59l2.94,2.07c-150,213.25-344.62,381.91-562.91,487.76C1925.11,2166,1740,2208.7,1553.86,2208.7Z"/><path class="cls-7" d="M2046.46,2478.71c-81.85-108-258.32-231.6-393.4-275.42l1.12-3.42c135.66,44,312.93,168.12,395.15,276.67Z"/><path class="cls-7" d="M1465.81,2208.27l-.47-3.57c73.16-9.48,138.72-55.58,194.87-137,41.18-59.74,76.43-136.76,104.77-228.9l3.44,1.06c-28.44,92.49-63.85,169.84-105.24,229.89C1606.43,2152,1540,2198.66,1465.81,2208.27Z"/><path class="cls-7" d="M2484,2156.09c-87.35-54.71-220.06-114.73-356.06-90l-.64-3.54c137.15-25,270.72,35.38,358.62,90.44Z"/><path class="cls-10" d="M2393.44,1889.1l-2.81-2.26c42.24-52.47,111-170.84,96.74-374.17l3.6-.25C2505.28,1717,2436,1836.22,2393.44,1889.1Z"/></g><path class="cls-11" d="M1304.86,2432.17c11.24-10.13,26.75-42.1,27.35-52.09,4-66.54,19.72-190.63-23.73-246.11-7.42-9.48-57.91,11.91-70.38,7.13-35.5,5.82-47.46,10-83.93-1-107.68-32.61-70.61-259.46-256.38-201.59-136.07,42.38-203.86,146.29-312-35.65s-464.78-403-564.27-155c-57.1,142.33,151.89,216,173.13,362.4,20.18,139.08,123,193.91,275.93,179.92s127.23,74.4,163.35,194.85c43.39,144.69,239.59,39.85,326-16.29C1029.58,2423.52,1237.35,2355.39,1304.86,2432.17Z"/><g class="cls-5"><g class="cls-12"><path class="cls-7" d="M1137.81,2277.32a1217.12,1217.12,0,0,0,184.47-14.06l-.55-3.56c-246.16,37.71-497.24-1-726.07-112-217.75-105.58-411.93-273.84-561.55-486.59l-2.95,2.07c150,213.25,344.63,381.92,562.92,487.76C766.57,2234.61,951.68,2277.32,1137.81,2277.32Z"/><path class="cls-7" d="M645.22,2547.33c81.85-108,258.32-231.59,393.39-275.41l-1.11-3.43c-135.66,44-312.93,168.12-395.15,276.67Z"/><path class="cls-7" d="M1225.87,2276.9l.47-3.58c-73.16-9.47-138.73-55.58-194.87-137-41.18-59.74-76.43-136.75-104.77-228.9l-3.44,1.06c28.44,92.5,63.85,169.84,105.24,229.89C1085.25,2220.66,1151.66,2267.28,1225.87,2276.9Z"/><path class="cls-7" d="M207.68,2224.71C295,2170,427.74,2110,563.74,2134.76l.64-3.54c-137.15-25-270.72,35.39-358.62,90.44Z"/><path class="cls-7" d="M298.24,1957.72l2.81-2.26c-42.24-52.47-111-170.84-96.74-374.16l-3.6-.26C186.4,1785.6,255.67,1904.84,298.24,1957.72Z"/></g></g><g class="cls-13"><path class="cls-14" d="M1489.88,2509.37q-116.36-85.35-230.07-176.15c-1.84.47,44.57-191.68,168.32-238.37,243.16-88.6,196.62-312.13,203.93-425.6,4.62-163,92.17-294.59,232.09-221.13,156.42,78.48,288.87-158.7,356-403.49C2244.87,920.9,2408,843.16,2527.41,870.09c123.07,24.8,202.53,154.28,143.41,395.57-56.6,285.82-311.82,337.93-436.07,429.08-122.14,89.39-3.11,280.21-179.87,322.14-150.88,40.61-318.6,37.57-320.22,190.79C1735,2360.22,1680.51,2455.13,1489.88,2509.37Z"/><path class="cls-15" d="M1376.69,2460.54l-2.21-1.27-4.34-1.71c2.89-7.33,242.74-341,520.91-621.95,43.08-48.55,88.06-96.79,131.56-143.44,116.38-124.83,236.73-253.9,328.07-397.81,102-160.76,157.53-325.34,169.66-503.15l7.2.49c-12.23,179-68.09,344.73-170.77,506.52-91.7,144.48-212.28,273.8-328.89,398.86-43.47,46.62-88.42,94.83-131.57,143.46C1609.1,2130.65,1378,2458.28,1376.69,2460.54Z"/><path class="cls-15" d="M2246,1451.58l-2.57-6.74c133.79-51,304.25-134.29,395.82-179,74.71-36.49,74.85-36.42,77.7-34.29l-4.31,5.78a3.21,3.21,0,0,0,2.33.64c-3.79.76-34.13,15.58-72.55,34.35C2550.73,1317.07,2380.08,1400.44,2246,1451.58Z"/><path class="cls-16" d="M2336,1327.89l-7-1.61c28.72-125.29,12.33-227.07-6.48-290.39-21.91-73.78-51.09-112.83-53.71-114.93a3.2,3.2,0,0,0,2.08.51l-.66-7.18c2-.19,3.47,1.23,4.87,2.82C2299.45,945,2386.94,1105.68,2336,1327.89Z"/><path class="cls-16" d="M1717.84,2032.85l-6.26-3.58c57.42-100.42,80-229.85,67-384.7-6.78-80.84-23.15-165.33-48.63-251.12-1.92-6.46-2.53-8.55-2.66-9.57l7.14-1c.12.72,1.19,4.32,2.43,8.48,25.62,86.27,42.08,171.25,48.9,252.58C1798.84,1800.3,1776,1931.14,1717.84,2032.85Z"/><path class="cls-15" d="M1801.34,1940.28l-3.85-6.09c85.71-54.36,184.35-51.85,252-40.18,72.75,12.56,127.83,38.62,129.36,40l.83,4.28-3.9,2,.65-3.52-1.88,3C2172.59,1938.63,1962.47,1838.09,1801.34,1940.28Z"/><path class="cls-16" d="M1415.74,2407l-6.55-3c21.06-45.72,37.1-134.54-6.06-298-2.53-9.59-2.53-9.59-1.6-11.11l6.15,3.74-3.08-1.87,3.58-.2c.1.68.94,3.89,1.92,7.6C1453.81,2269.68,1437.29,2360.21,1415.74,2407Z"/><path class="cls-16" d="M1473,2330.44l-5.52-4.64c25.5-30.32,96.22-78.38,283.23-59.59,2.51.25,4.11.42,4.71.44l-.22,7.2c-.65,0-2.43-.19-5.21-.47C1686.54,2267,1532.45,2259.8,1473,2330.44Z"/></g><path class="cls-17" d="M2439.82,915c0-474.87-404.3-859.84-903-859.84s-903,385-903,859.84c0,288.19,148.92,543.26,377.47,699.27,97,66.19,155.76,175.28,155.76,292.67v65.8c0,143,115.9,258.87,258.87,258.87h221.86c143,0,258.86-115.9,258.86-258.87v-65.8c0-117.39,58.81-226.48,155.77-292.67C2290.91,1458.24,2439.82,1203.17,2439.82,915Z"/><ellipse class="cls-18" cx="1536.8" cy="2614.96" rx="200.32" ry="106.05"/><path class="cls-19" d="M1270.65,2425.51v108.3a95.13,95.13,0,0,0,53.93,86c45.91,21.9,122.25,45.93,233.2,43.09,90-2.31,148.7-17,186-32.45,36-14.92,59.15-50.57,59.15-89.58v-59.92Z"/><path class="cls-20" d="M1270.65,2520.37a105.09,105.09,0,0,0,28.06,19.61c51.51,24.57,388.92,79.46,470.31,48.88a109.67,109.67,0,0,0,28.41-15.7,98.13,98.13,0,0,0,5.51-32.3v-59.92l-532.29-55.43Z"/><path class="cls-21" d="M1294.28,2351.82a50.81,50.81,0,0,0-56.06,50.54v3.07a106.73,106.73,0,0,0,60.49,96.46c51.51,24.57,388.92,79.46,470.31,48.88,41-15.4,66.36-50.57,66.36-94.34V2454a50.8,50.8,0,0,0-45.54-50.53Z"/><path class="cls-22" d="M1789.84,2403.43l-495.56-51.61a50.73,50.73,0,0,0-47.48,22.37,106.05,106.05,0,0,0,51.91,54.44c51.51,24.57,403.29,86.61,470.31,55,26.09-12.29,46.54-33,57.51-58.27A50.69,50.69,0,0,0,1789.84,2403.43Z"/><path class="cls-23" d="M1274.9,2176.36a36.68,36.68,0,0,0-36.68,36.68v84.82a106.74,106.74,0,0,0,60.49,96.47c51.51,24.56,403.29,86.61,470.31,55,39.59-18.66,66.36-56.73,66.36-100.5V2213a36.68,36.68,0,0,0-36.68-36.68Z"/><path class="cls-24" d="M1828,2202.76c0,38-130.37,68.85-291.19,68.85s-291.2-30.82-291.2-68.85,130.37-68.84,291.2-68.84S1828,2164.74,1828,2202.76Z"/><path class="cls-25" d="M2439.82,915c0-474.87-404.3-859.84-903-859.84s-903,385-903,859.84c0,288.19,148.92,543.26,377.47,699.27,97,66.19,155.76,175.28,155.76,292.67v65.8c0,143,115.9,258.87,258.87,258.87h221.86c143,0,258.86-115.9,258.86-258.87v-65.8c0-117.39,58.81-226.48,155.77-292.67C2290.91,1458.24,2439.82,1203.17,2439.82,915Z"/><ellipse class="cls-26" cx="1536.8" cy="2148.48" rx="213.08" ry="50.38"/><path class="cls-27" d="M1481.27,2179.26a12.32,12.32,0,0,1-12.2-10.74l-156.75-1219a12.32,12.32,0,0,1,24.43-3.14l156.75,1219a12.31,12.31,0,0,1-12.23,13.88Z"/><path class="cls-28" d="M1578.63,2179.26a12.08,12.08,0,0,1-1.58-.1,12.32,12.32,0,0,1-10.65-13.78l156.76-1219a12.32,12.32,0,0,1,24.43,3.14l-156.76,1219A12.31,12.31,0,0,1,1578.63,2179.26Z"/><path class="cls-29" d="M1706.3,948.51A12.31,12.31,0,0,1,1696,943l-43.26-65.63a2,2,0,0,0-3.43,0l-28.56,47.84a26.6,26.6,0,0,1-45.06,1.1l-39.22-58.8a2,2,0,0,0-1.69-1,2.1,2.1,0,0,0-1.64.9l-34.46,49.8a26.64,26.64,0,0,1-21.82,11.52h-.06a26.7,26.7,0,0,1-21.87-11.47l-49.67-71.15a2.25,2.25,0,0,0-1.75-.94,1.94,1.94,0,0,0-1.66,1.07l-45.34,78.26a12.31,12.31,0,1,1-21.3-12.35l45.33-78.26a26.59,26.59,0,0,1,44.92-1.88l49.66,71.16a2,2,0,0,0,1.68.93,1.92,1.92,0,0,0,1.63-.9l34.46-49.8a26.57,26.57,0,0,1,44.07.43l39.22,58.79c.44.66,1.1,1.22,1.76,1a1.93,1.93,0,0,0,1.66-1l28.56-47.84a26.58,26.58,0,0,1,45.14-1l43.26,65.63a12.32,12.32,0,0,1-10.26,19.09Z"/><path class="cls-30" d="M1553.19,1593.2c19.34-331.41,578-409,575.65-704.94-1.48-182.29-223.49-317.66-270.9-344.78-349.32-199.79-779.29,30.93-868.09-132.37C967.74,370.46,978.11,326.2,984,301c8.92-38.1,29.12-73.58,59.09-106C796.64,348.51,633.77,613.61,633.77,915c0,288.19,148.92,543.26,377.47,699.27,97,66.19,155.76,175.28,155.76,292.67v65.8c0,143,115.9,258.87,258.87,258.87h221.86c143,0,258.86-115.9,258.86-258.87v-52.6c-30.53,23.4-65.6,39.72-104.06,39.4C1669.1,1958.42,1543.56,1758.12,1553.19,1593.2Z"/><ellipse class="cls-31" cx="1551.24" cy="948.51" rx="777.07" ry="749.4"/><path class="cls-32" d="M1366.09,2620.69c-13.36-57.42-13.25-56.68-14.6-55.69-1.75,1.28-27.89,21-50,24.64-226.07,37.23-371,38.85-371,38.85-106.89-23.58-276-82.85-279-62.5-1,6.92,3.62,16.59,5.52,47.28,1.92,31.1-1.61,41.23-.27,49.68,11,69.21,358.6,90.09,358.6,90.09,143.52,2.95,230.2-.85,281.9-12.37,23-5.11,63.46-15.79,72-58.7C1373,2663,1368,2629,1366.09,2620.69Z"/><path class="cls-33" d="M1195.07,1461.5c79,23.89,180.15,116.89,233,167.88,122,117.59,350.92,514.35,217.52,656-90.76,96.39-250.25,55.88-320.57-41.31-51.72-71.48-20.4-136.54-9.51-265.23C1327.25,1840.4,1277.62,1598.33,1195.07,1461.5Z"/><path class="cls-33" d="M1261.67,1499.65c54.48,64.71,73.6,59.3,116.07,148.39,64,134.21,16.85,287.62,10.14,452.93-7.39,181.86-13.3,274,30.75,340.8,20.63,31.27,50.22,61.2,39.94,89.79-13.48,37.46-85.27,44.88-170.58,52.82-116,10.81-185.93,3.25-185.93,3.25-290.85-31.44-436.27-47.16-493.78-94.29-154.66-126.77-91.09-551.74,169-1015.8,24.56-.44,73.16-26.09,92.94-31.62,84.85-23.74,161.47-27.74,241.71-16.82,29.36,4,44.13,10.75,65.55,19C1212.25,1461.46,1234.7,1481.32,1261.67,1499.65Z"/><path class="cls-34" d="M950.7,1244.06c1.15,56.3-17.32,137.43-24.61,187.92s95.91,52.61,129.64,29.2c31-21.5,7.66-79.8-22.22-110.4S981.21,1275.38,950.7,1244.06Z"/><path class="cls-35" d="M1105.92,1226.45c47.56-42,56.29-190.94,8.09-220.1-23.38-14.14-64.14,59.31-90.66,73.49-35.61,19-132.26,40.2-151.41,78.37C857.5,1187,886.51,1246.67,898.16,1268c13.18,24.14,14.73,15.89,30.56,33,21.94,23.75,51.17,51.56,73.46,78.2,4.82-20.25,3.55-20.24,12.06-46.41,3.27-10.06,29.53-52.59,42.3-69C1064.65,1253.39,1100.09,1231.59,1105.92,1226.45Z"/><path class="cls-36" d="M953.41,1342.27c36.58,33.85,54.46,75,120.82,62.68,59.41-11,69.37-159.38,15.34-203.15-18-14.59-44.35-14.43-66.74-7.77-13.23,3.93-27.05,12.75-40.27,17.81-12.19,4.67-22.48-1-33.67,11.36-14,15.47-4.5,54.93,3.52,74-6.13-5.38-13-13-21.09-15.47-5.67-1.76-15.52-11.17-20.87-3-8.73,13.31,10.21,38.69,21.32,49.13C936.86,1332.62,947.19,1338.48,953.41,1342.27Z"/><path class="cls-37" d="M944.6,1213.71c8.14,4.7-6.34,19.72-4.17,34.59,4.22,28.86,13.44,81,55.56,86,24.9,3,51-19.25,77.1-21.92,16.16-1.65,34-.77,50.08,3.56,10.4,31.08,10.83,80-16.12,99.24-29,20.73-48,10-78.88,1.06-20.62-6-43.38-23.75-56.35-44-13.51-21.08-23.42-43.22-36.83-65.4-7.4-12.25-16.36-27.58-25.07-40.43-2.37-3.49-6-9.08-7.7-13.7C909.22,1246,932.83,1206.9,944.6,1213.71Z"/><path class="cls-38" d="M1090.37,1337.22c-12.26,6.84-26.63,6.79-40,7-.64,0-3.52-1.12-2.42,1.3,4.17,9.12,22.21,12.27,31.37,9.63,6.51-1.88,17.5-9.81,16.33-16.93C1095.18,1335.19,1091.6,1337.85,1090.37,1337.22Z"/><path class="cls-39" d="M1236.54,2493.12c9.68-21.36,10.93-42.42,11.4-51.55,8.32-163.35-226.88-227.08-219-333.07,7.15-95.63,150.3-84.85,231.75-254.58,14-29.14,65.16-139.9,28-265.34-14.82-50.09-39.17-87.14-57.36-110.42,10,7.08,19.81,14.4,30.24,21.49,54.48,64.71,73.6,59.3,116.07,148.39,58.76,123.28,10.14,452.93,10.14,452.93-24.89,75-44.21,178.11-3.44,277.44,33.71,82.15,84.68,103.6,75.75,146.52-21.75,104.57-352.85,114.31-395.17,115.28-226.6,5.21-413-67.36-398.94-64.83C687.85,2579.29,1160.69,2660.49,1236.54,2493.12Z"/><path class="cls-40" d="M1430.42,1988.28c47.8-2.4,14.79-31.3,29.26-27.1,9.07,2.64,230.85,220.69,161,335.73-66.65,109.71-343.54,35.31-441.11.52-54.22-19.33-215.26-79.22-313.06-235-8.79-14-15.38-26.07-19.74-34.48,213.74-28,316.11-34.76,369.73-35C1250.85,1992.73,1285.55,1995.53,1430.42,1988.28Z"/><path class="cls-33" d="M1349.64,1966.13c-6,48.16-30.9,196.8-156.43,318.6-25,24.22-194.25,183-431.61,143C575.4,2396.31,414.51,2254,372.78,2076.9c-78.43-332.8,308.07-601.28,437.57-606.14,12.54-.47,22.91,1.53,32.21,6.49,73.79,39.34,96.22,275.25-14.42,412.44-22.19,27.52-63.46,65.72-57.07,113.68,6.14,46.06,52.76,75.13,79.17,91.11,124.57,75.37,397.46-119.16,469.66-135.12C1325.1,1959.2,1329,1954.26,1349.64,1966.13Z"/><path class="cls-41" d="M687.41,1888.06c43-43.57,92.84-66.51,148.87-83.74,14-3.79,28-7.3,41.84-10.91-11.45,35.61-27.86,68.85-50,96.28s-63.47,65.72-57.08,113.68c6.14,46.06,52.76,75.13,79.17,91.11,124.57,75.37,397.46-119.16,469.66-135.12,5.2-.16,9.12-5.1,29.74,6.77a539.54,539.54,0,0,1-9.38,53.17c-102.43-32.8-213.54,70-302.11,120.19-113.84,64.39-255.48,106-366.47,21C588.5,2098.17,618.66,1959.56,687.41,1888.06Z"/><path class="cls-42" d="M629.44,1549.46c19.42,65.29,21.77,131.42-17.15,194.49-56.09,88.9-118.75,163.14-141.55,262.62C450.3,2091,462.66,2174.14,487,2256.76c7.05,22,17.95,41.07,31.34,58.19-74.27-62.69-129.07-145.87-149-238.76C322.3,1858,480.49,1656,629.44,1549.46Z"/><path class="cls-43" d="M866.47,2062.45c-5.92,14.15-35.18,28.68-49.38,27-23.81-2.76-40.62-19-55.55-26.05-13.33-6.31-43.1-14.88-44.89-25.47-3.38-20.06,29.15-25.71,48.23-27.64,26.75-2.71,55.28,5.09,81.85,17.65C853.33,2039.57,860.74,2051,866.47,2062.45Z"/><path class="cls-44" d="M1392.44,1990.06c-93.41,13.13-115,6.68-117.6-1.55-3.31-10.51,21.87-31.77,48.76-35.42C1350.87,1949.38,1378.55,1964,1392.44,1990.06Z"/><path class="cls-45" d="M978.72,1474.15a144.62,144.62,0,0,0,24.26,45.43l32.36.79,15.12-56.13a146.84,146.84,0,0,1-71.74,9.91Z"/><path class="cls-46" d="M1003,1516.59s3.95,361.7-102.22,430.3c4,11.19,10.48,104.75,10.48,104.75s101.19-41.86,107.34-40.38,106.59-210.15,16.77-490.89Z"/><path class="cls-47" d="M1384.69,2572.57c-1.85-1-4,.08-5.57.72-1.95.82-13.6,1.87-36.89,4-238.08,21.36-408.57-6.17-408.57-6.17-107.61-17.38-275.21-59.53-280.76-46-1.89,4.61,1.74,11.13,0,31.63-1.76,20.79-6.63,27.49-6.26,33.15,3,46.35,359.71,65.62,359.71,65.62,147.94,4.18,238,3,292.78-3.91,24.35-3.06,67.47-9.56,81.45-38.06C1386.76,2600.94,1391.25,2576,1384.69,2572.57Z"/><path class="cls-48" d="M1098,2587.4l15.92,59.83.61,6.34c.61,6.4-5.28,11.91-13.1,12.19l-74,2.64c-7.82.28-14.32-4.79-14.43-11.2l-.12-6.38,8.12-60.17c-.1-5.73-3.39-10.55,3.9-10.81l69-2.45C1101.18,2577.13,1097.41,2581.69,1098,2587.4Z"/><path class="cls-49" d="M1108.11,2582.87l6.33,66.28c.62,6.39-5.28,11.9-13.09,12.17l-73.93,2.64c-7.82.28-14.32-4.78-14.43-11.19l-1.18-66.48c-.1-5.72,5.79-10.58,13.08-10.84l69-2.45C1101.15,2572.74,1107.56,2577.16,1108.11,2582.87Z"/><path class="cls-50" d="M1949.87,2584.19v63.49c0,20.51,128.14,37.14,286.21,37.14s286.21-16.63,286.21-37.14v-63.49Z"/><path class="cls-51" d="M2522.29,2584.19c0,20.52-128.14,37.14-286.21,37.14s-286.21-16.62-286.21-37.14,128.14-37.14,286.21-37.14S2522.29,2563.68,2522.29,2584.19Z"/><path class="cls-52" d="M2236.08,2623.9c-140,0-286.38-13.37-286.38-39.17,0-1.41.5-3.9,1.92-3.9s.81,2,.81,3.36c0,16.36,116.49,34.58,283.65,34.58s283.64-18.22,283.64-34.58c0-1.41.25-2.74,1.66-2.74s1.08,1.89,1.08,3.31C2522.46,2610.55,2376.07,2623.9,2236.08,2623.9Z"/><path class="cls-53" d="M2209,2586.26c2.81-1.94,5.8-3.86,9-5.75a56.55,56.55,0,0,1,12.29-5.13,119.12,119.12,0,0,1,18.87-3.73,238.79,238.79,0,0,1,28.26-1.52q16.59-.09,31.15,1a214.09,214.09,0,0,1,25.62,3.39,79.66,79.66,0,0,1,18,5.58q6.9,3.33,8.22,7.62l32.23.33a31.2,31.2,0,0,1,6.18.57c1.8.37,2.67.83,2.67,1.39l0,2.66-41.44-.4q-2.17,4.88-11.1,8.92a112.8,112.8,0,0,1-22.72,7l-15.09-2.1a17.8,17.8,0,0,1-3.33-.79c-.87-.32-1.29-.66-1.3-1s1.17-1.09,3.5-1.74,5-1.47,7.91-2.44a78.31,78.31,0,0,0,8.64-3.42c2.81-1.31,4.69-2.88,5.67-4.71l-97.79-1a92.21,92.21,0,0,1-8.63,5.58,56.61,56.61,0,0,1-12.69,4.92,132.34,132.34,0,0,1-19.68,3.56,278.2,278.2,0,0,1-29.67,1.45c-9,0-17.68-.3-26.23-1a178.89,178.89,0,0,1-22.77-3.24,71.3,71.3,0,0,1-16.33-5.35c-4.24-2.13-6.62-4.57-7.11-7.32l-26.53-.28a34.66,34.66,0,0,1-6.27-.55c-1.83-.35-2.76-.82-2.77-1.41v-2.66l36.27.35c1.61-2.8,4.89-5.23,9.92-7.31a113.64,113.64,0,0,1,18.41-5.53l12.15,1.66c3.69.52,5.52,1.13,5.52,1.83,0,.37-.74.84-2.27,1.39l-5.44,2a49.76,49.76,0,0,0-6.05,2.73,12.82,12.82,0,0,0-4.42,3.54Zm-89.49,3.62c.72,1.74,2.35,3.24,4.81,4.5a38.58,38.58,0,0,0,9.22,3.11,94.62,94.62,0,0,0,12.42,1.79q6.93.57,14.48.53a150.31,150.31,0,0,0,15.38-.76,87.73,87.73,0,0,0,11.5-2,54.14,54.14,0,0,0,8.65-2.85,49.25,49.25,0,0,0,6.61-3.53Zm212.88-2.37c-.73-1.77-2.5-3.31-5.27-4.64a47,47,0,0,0-10.6-3.34,116.24,116.24,0,0,0-15-2q-8.55-.66-18.89-.61a144.14,144.14,0,0,0-15.83.82,81.6,81.6,0,0,0-11.5,2.09,42.17,42.17,0,0,0-8.26,3.05,59,59,0,0,0-6.33,3.73Z"/><path class="cls-54" d="M2236.12,2551.07c-127.62,0-260.5,11.23-281.75,33a25.56,25.56,0,0,1,2.32,2.45c17.91-15.1,127.63-30.29,279.43-30.29,155.68,0,267.16,16,280.67,31.45a25.83,25.83,0,0,1,2.14-2.43C2501.37,2562.72,2366,2551.07,2236.12,2551.07Z"/><path class="cls-55" d="M1870.3,2517.51V2581c0,20.52,128.14,37.15,286.21,37.15s286.21-16.63,286.21-37.15v-63.48Z"/><ellipse class="cls-56" cx="2156.51" cy="2517.51" rx="286.21" ry="37.14"/><path class="cls-57" d="M2156.51,2557.22c-140,0-286.38-13.38-286.38-39.17,0-1.41.51-3.9,1.92-3.9s.81,1.95.81,3.36c0,16.36,116.49,34.58,283.65,34.58s283.65-18.22,283.65-34.58c0-1.41.24-2.74,1.66-2.74s1.07,1.89,1.07,3.3C2442.89,2543.86,2296.5,2557.22,2156.51,2557.22Z"/><path class="cls-53" d="M2129.47,2519.58q4.2-2.91,9-5.75a56.87,56.87,0,0,1,12.3-5.13,117.62,117.62,0,0,1,18.86-3.73,238.79,238.79,0,0,1,28.26-1.52q16.6-.09,31.15,1.05a212.06,212.06,0,0,1,25.62,3.39,79.76,79.76,0,0,1,18,5.58q6.89,3.33,8.22,7.62l32.22.33a31.2,31.2,0,0,1,6.18.57c1.8.37,2.67.83,2.68,1.39V2526l-41.43-.4q-2.17,4.88-11.11,8.91a112,112,0,0,1-22.72,7l-15.09-2.09a17.8,17.8,0,0,1-3.33-.79c-.87-.32-1.29-.66-1.29-1s1.16-1.09,3.5-1.75,5-1.46,7.9-2.43A78.46,78.46,0,0,0,2247,2530c2.81-1.31,4.69-2.88,5.67-4.71l-97.79-1a91.71,91.71,0,0,1-8.64,5.57,56,56,0,0,1-12.68,4.93,133.65,133.65,0,0,1-19.68,3.56,278.35,278.35,0,0,1-29.67,1.45c-9,0-17.69-.3-26.24-1a179,179,0,0,1-22.76-3.24,71.4,71.4,0,0,1-16.34-5.35c-4.24-2.13-6.62-4.57-7.11-7.33l-26.53-.27a34.66,34.66,0,0,1-6.27-.55c-1.83-.35-2.76-.82-2.76-1.41l0-2.66,36.28.35c1.6-2.8,4.89-5.23,9.91-7.31a114.9,114.9,0,0,1,18.41-5.54l12.15,1.67c3.69.52,5.52,1.13,5.53,1.82,0,.38-.75.85-2.27,1.4s-3.36,1.23-5.45,2a49.62,49.62,0,0,0-6,2.73,12.73,12.73,0,0,0-4.42,3.53Zm-89.5,3.62c.73,1.74,2.36,3.24,4.82,4.5a38.43,38.43,0,0,0,9.22,3.11,94.62,94.62,0,0,0,12.42,1.79q6.93.57,14.48.53a150.1,150.1,0,0,0,15.37-.76,89.13,89.13,0,0,0,11.5-1.95,53.81,53.81,0,0,0,8.65-2.85A48.06,48.06,0,0,0,2123,2524Zm212.89-2.37c-.73-1.77-2.51-3.31-5.27-4.64a47.76,47.76,0,0,0-10.6-3.35,118.08,118.08,0,0,0-15-2q-8.55-.66-18.89-.61a144,144,0,0,0-15.82.82,82.9,82.9,0,0,0-11.5,2.08,42.55,42.55,0,0,0-8.26,3.06,59.12,59.12,0,0,0-6.34,3.73Z"/><path class="cls-58" d="M2156.55,2484.39c-127.62,0-260.49,11.23-281.75,33a25.39,25.39,0,0,1,2.32,2.44c17.92-15.09,127.64-30.29,279.43-30.29,155.69,0,267.17,16,280.67,31.46a25.83,25.83,0,0,1,2.14-2.43C2421.81,2496,2286.43,2484.39,2156.55,2484.39Z"/><path class="cls-59" d="M1939,2451v63.48c0,20.51,128.14,37.14,286.22,37.14s286.21-16.63,286.21-37.14V2451Z"/><ellipse class="cls-60" cx="2225.17" cy="2451.03" rx="286.21" ry="37.14"/><path class="cls-61" d="M2225.16,2490.73c-140,0-286.37-13.37-286.37-39.16,0-1.42.5-3.91,1.92-3.91s.81,2,.81,3.37c0,16.35,116.49,34.57,283.64,34.57s283.65-18.22,283.65-34.57c0-1.42.24-2.75,1.66-2.75s1.08,1.89,1.08,3.31C2511.55,2477.38,2365.16,2490.73,2225.16,2490.73Z"/><path class="cls-53" d="M2198.12,2453.1c2.81-1.95,5.8-3.86,9-5.76a56.4,56.4,0,0,1,12.3-5.12,116.9,116.9,0,0,1,18.87-3.73,238.52,238.52,0,0,1,28.26-1.53q16.59-.08,31.15,1.05a212.19,212.19,0,0,1,25.62,3.4,79.19,79.19,0,0,1,18,5.57q6.9,3.33,8.22,7.62l32.23.33a32,32,0,0,1,6.18.57c1.8.37,2.67.83,2.67,1.4v2.65l-41.43-.4q-2.18,4.88-11.1,8.92a113,113,0,0,1-22.72,7l-15.09-2.1a17.8,17.8,0,0,1-3.33-.79c-.87-.32-1.29-.66-1.3-1s1.17-1.09,3.5-1.74,5-1.47,7.9-2.43a81.78,81.78,0,0,0,8.65-3.42c2.81-1.32,4.69-2.89,5.67-4.71l-97.79-1a93.54,93.54,0,0,1-8.63,5.57,56.58,56.58,0,0,1-12.69,4.93,133.78,133.78,0,0,1-19.68,3.55,278.35,278.35,0,0,1-29.67,1.45c-9,0-17.68-.29-26.23-1a180.58,180.58,0,0,1-22.77-3.25,70.82,70.82,0,0,1-16.33-5.35c-4.24-2.12-6.62-4.56-7.11-7.32l-26.54-.27a34.58,34.58,0,0,1-6.26-.56c-1.83-.35-2.77-.82-2.77-1.41v-2.65l36.27.34c1.61-2.79,4.89-5.23,9.92-7.3a112.28,112.28,0,0,1,18.41-5.54l12.15,1.67c3.69.51,5.52,1.12,5.52,1.82,0,.37-.74.84-2.27,1.4s-3.35,1.22-5.45,2a51.94,51.94,0,0,0-6,2.73,12.94,12.94,0,0,0-4.42,3.54Zm-89.49,3.61c.72,1.74,2.35,3.24,4.81,4.5a38.58,38.58,0,0,0,9.22,3.11,93,93,0,0,0,12.42,1.79q6.93.57,14.48.53a150.57,150.57,0,0,0,15.38-.75,89.43,89.43,0,0,0,11.5-1.95,53.12,53.12,0,0,0,8.65-2.86,48.14,48.14,0,0,0,6.61-3.53Zm212.88-2.37c-.73-1.76-2.5-3.31-5.27-4.64a47.46,47.46,0,0,0-10.6-3.34,116.24,116.24,0,0,0-15-2q-8.55-.66-18.89-.61a144.14,144.14,0,0,0-15.83.82,81.6,81.6,0,0,0-11.5,2.09,42.17,42.17,0,0,0-8.26,3.05,60.66,60.66,0,0,0-6.33,3.73Z"/><path class="cls-62" d="M2225.2,2417.9c-127.61,0-260.49,11.23-281.74,33a26.8,26.8,0,0,1,2.32,2.45c17.91-15.1,127.63-30.29,279.42-30.29,155.69,0,267.17,16,280.67,31.45a27.41,27.41,0,0,1,2.14-2.42C2490.46,2429.55,2355.09,2417.9,2225.2,2417.9Z"/><path class="cls-63" d="M1980.61,2384.34v63.49c0,20.51,128.15,37.14,286.22,37.14S2553,2468.34,2553,2447.83v-63.49Z"/><ellipse class="cls-64" cx="2266.83" cy="2384.34" rx="286.21" ry="37.14"/><path class="cls-65" d="M2266.83,2424.05c-140,0-286.38-13.37-286.38-39.16,0-1.42.5-3.91,1.92-3.91s.81,1.95.81,3.36c0,16.36,116.49,34.58,283.65,34.58s283.64-18.22,283.64-34.58c0-1.41.25-2.74,1.66-2.74s1.08,1.89,1.08,3.31C2553.21,2410.7,2406.82,2424.05,2266.83,2424.05Z"/><path class="cls-53" d="M2239.78,2386.41c2.81-1.94,5.8-3.86,9-5.75a56.09,56.09,0,0,1,12.29-5.12,117.89,117.89,0,0,1,18.87-3.74,238.79,238.79,0,0,1,28.26-1.52q16.59-.09,31.15,1a214.09,214.09,0,0,1,25.62,3.39,79.66,79.66,0,0,1,18,5.58q6.9,3.33,8.22,7.62l32.23.33a31.2,31.2,0,0,1,6.18.57c1.8.37,2.67.83,2.67,1.39v2.66l-41.43-.4q-2.17,4.88-11.1,8.92a113,113,0,0,1-22.72,7l-15.09-2.1a17.8,17.8,0,0,1-3.33-.79c-.87-.32-1.29-.66-1.3-1s1.17-1.09,3.5-1.74,5-1.47,7.91-2.44a78.31,78.31,0,0,0,8.64-3.42c2.81-1.31,4.69-2.88,5.67-4.71l-97.79-1a90.23,90.23,0,0,1-8.63,5.58,56.14,56.14,0,0,1-12.69,4.92,132.34,132.34,0,0,1-19.68,3.56,278.06,278.06,0,0,1-29.67,1.45c-9,0-17.68-.3-26.23-1a178.89,178.89,0,0,1-22.77-3.24,70.82,70.82,0,0,1-16.33-5.35c-4.24-2.13-6.62-4.56-7.11-7.32l-26.53-.28a33.78,33.78,0,0,1-6.27-.55c-1.83-.35-2.76-.82-2.77-1.41v-2.65l36.27.34c1.61-2.79,4.89-5.23,9.92-7.3a112.58,112.58,0,0,1,18.41-5.54l12.15,1.67c3.69.51,5.52,1.12,5.52,1.82,0,.37-.74.84-2.27,1.4s-3.35,1.22-5.44,2A49.76,49.76,0,0,0,2155,2382a12.94,12.94,0,0,0-4.42,3.54Zm-89.49,3.62c.72,1.74,2.35,3.24,4.82,4.5a38.34,38.34,0,0,0,9.21,3.11,94.62,94.62,0,0,0,12.42,1.79q6.93.57,14.48.53a150.31,150.31,0,0,0,15.38-.76,89.55,89.55,0,0,0,11.5-1.94,53.12,53.12,0,0,0,8.65-2.86,49.25,49.25,0,0,0,6.61-3.53Zm212.88-2.37c-.73-1.77-2.5-3.31-5.27-4.64a47.53,47.53,0,0,0-10.59-3.34,116.65,116.65,0,0,0-15-2q-8.55-.66-18.89-.61a144.14,144.14,0,0,0-15.83.82,81.6,81.6,0,0,0-11.5,2.09,42.17,42.17,0,0,0-8.26,3.05,59,59,0,0,0-6.33,3.73Z"/><path class="cls-66" d="M2266.86,2351.22c-127.61,0-260.49,11.23-281.74,33a26.8,26.8,0,0,1,2.32,2.45c17.91-15.1,127.63-30.29,279.42-30.29,155.69,0,267.17,16,280.68,31.45a24.52,24.52,0,0,1,2.14-2.42C2532.12,2362.87,2396.75,2351.22,2266.86,2351.22Z"/><path class="cls-67" d="M1949.87,2312.4v63.49c0,20.51,128.14,37.14,286.21,37.14s286.21-16.63,286.21-37.14V2312.4Z"/><ellipse class="cls-68" cx="2236.08" cy="2312.4" rx="286.21" ry="37.14"/><path class="cls-69" d="M2236.08,2352.11c-140,0-286.38-13.37-286.38-39.16,0-1.42.5-3.91,1.92-3.91s.81,1.95.81,3.36c0,16.36,116.49,34.58,283.65,34.58s283.64-18.22,283.64-34.58c0-1.41.25-2.74,1.66-2.74s1.08,1.89,1.08,3.31C2522.46,2338.76,2376.07,2352.11,2236.08,2352.11Z"/><path class="cls-53" d="M2209,2314.47c2.81-1.94,5.8-3.86,9-5.75a56.55,56.55,0,0,1,12.29-5.13,119.12,119.12,0,0,1,18.87-3.73,238.79,238.79,0,0,1,28.26-1.52q16.59-.09,31.15,1a212.06,212.06,0,0,1,25.62,3.39,79.66,79.66,0,0,1,18,5.58q6.9,3.33,8.22,7.62l32.23.33a31.2,31.2,0,0,1,6.18.57c1.8.37,2.67.83,2.67,1.39l0,2.66-41.44-.4q-2.17,4.88-11.1,8.92a112.8,112.8,0,0,1-22.72,7l-15.09-2.1a17.8,17.8,0,0,1-3.33-.79c-.87-.32-1.29-.66-1.3-1s1.17-1.09,3.5-1.74,5-1.47,7.91-2.44a78.31,78.31,0,0,0,8.64-3.42c2.81-1.31,4.69-2.88,5.67-4.71l-97.79-1a92.21,92.21,0,0,1-8.63,5.58,56.61,56.61,0,0,1-12.69,4.92,132.34,132.34,0,0,1-19.68,3.56,278.2,278.2,0,0,1-29.67,1.45c-9,0-17.68-.3-26.23-1a178.89,178.89,0,0,1-22.77-3.24,71.3,71.3,0,0,1-16.33-5.35c-4.24-2.13-6.62-4.57-7.11-7.33l-26.53-.27a34.66,34.66,0,0,1-6.27-.55c-1.83-.35-2.76-.82-2.77-1.41v-2.66l36.27.35c1.61-2.8,4.89-5.23,9.92-7.31a113.64,113.64,0,0,1,18.41-5.53l12.15,1.66c3.69.52,5.52,1.13,5.52,1.83,0,.37-.74.84-2.27,1.39l-5.44,2a49.76,49.76,0,0,0-6.05,2.73,12.94,12.94,0,0,0-4.42,3.54Zm-89.49,3.62c.72,1.74,2.35,3.24,4.81,4.5a38.58,38.58,0,0,0,9.22,3.11,94.62,94.62,0,0,0,12.42,1.79q6.93.57,14.48.53a150.31,150.31,0,0,0,15.38-.76,89.55,89.55,0,0,0,11.5-1.94,55.12,55.12,0,0,0,8.65-2.86,49.25,49.25,0,0,0,6.61-3.53Zm212.88-2.37c-.73-1.77-2.5-3.31-5.27-4.64a47.46,47.46,0,0,0-10.6-3.34,116.24,116.24,0,0,0-15-2q-8.55-.66-18.89-.61a144.14,144.14,0,0,0-15.83.82,81.6,81.6,0,0,0-11.5,2.09,42.17,42.17,0,0,0-8.26,3.05,59,59,0,0,0-6.33,3.73Z"/><path class="cls-70" d="M2236.12,2279.28c-127.62,0-260.5,11.23-281.75,33a26.69,26.69,0,0,1,2.32,2.44c17.91-15.09,127.63-30.28,279.43-30.28,155.68,0,267.16,16,280.67,31.45a25.83,25.83,0,0,1,2.14-2.43C2501.37,2290.93,2366,2279.28,2236.12,2279.28Z"/><path class="cls-71" d="M1870.3,2245.72v63.48c0,20.52,128.14,37.15,286.21,37.15s286.21-16.63,286.21-37.15v-63.48Z"/><path class="cls-72" d="M2442.72,2245.72c0,20.51-128.14,37.14-286.21,37.14s-286.21-16.63-286.21-37.14,128.14-37.14,286.21-37.14S2442.72,2225.21,2442.72,2245.72Z"/><path class="cls-73" d="M2156.51,2285.43c-140,0-286.38-13.38-286.38-39.17,0-1.41.51-3.9,1.92-3.9s.81,1.95.81,3.36c0,16.36,116.49,34.58,283.65,34.58s283.65-18.22,283.65-34.58c0-1.41.24-2.74,1.66-2.74s1.07,1.89,1.07,3.3C2442.89,2272.08,2296.5,2285.43,2156.51,2285.43Z"/><path class="cls-53" d="M2129.47,2247.79q4.2-2.91,9-5.75a56.87,56.87,0,0,1,12.3-5.13,117.62,117.62,0,0,1,18.86-3.73,238.79,238.79,0,0,1,28.26-1.52q16.6-.09,31.15,1.05a212.06,212.06,0,0,1,25.62,3.39,79.76,79.76,0,0,1,18,5.58q6.89,3.33,8.22,7.62l32.22.33a31.2,31.2,0,0,1,6.18.57c1.8.37,2.67.83,2.68,1.39v2.66l-41.43-.4q-2.17,4.88-11.11,8.91a112,112,0,0,1-22.72,7l-15.09-2.09a17.8,17.8,0,0,1-3.33-.79c-.87-.32-1.29-.66-1.29-1s1.16-1.09,3.5-1.75,5-1.46,7.9-2.43a78.46,78.46,0,0,0,8.65-3.42c2.81-1.31,4.69-2.88,5.67-4.71l-97.79-1a91.71,91.71,0,0,1-8.64,5.57,56,56,0,0,1-12.68,4.93,133.65,133.65,0,0,1-19.68,3.56,278.35,278.35,0,0,1-29.67,1.45c-9,0-17.69-.3-26.24-1a179,179,0,0,1-22.76-3.24,71.4,71.4,0,0,1-16.34-5.35c-4.24-2.13-6.62-4.57-7.11-7.33l-26.53-.27a34.66,34.66,0,0,1-6.27-.55c-1.83-.35-2.76-.82-2.76-1.41l0-2.66,36.28.35c1.6-2.8,4.89-5.23,9.91-7.31a114.9,114.9,0,0,1,18.41-5.54l12.15,1.67c3.69.52,5.52,1.13,5.53,1.82,0,.38-.75.85-2.27,1.4s-3.36,1.23-5.45,2a49.56,49.56,0,0,0-6,2.72,12.86,12.86,0,0,0-4.42,3.54Zm-89.5,3.62c.73,1.74,2.36,3.24,4.82,4.5A38.43,38.43,0,0,0,2054,2259a94.62,94.62,0,0,0,12.42,1.79q6.93.57,14.48.53a150.1,150.1,0,0,0,15.37-.76,89.13,89.13,0,0,0,11.5-1.95,53.81,53.81,0,0,0,8.65-2.85,48.06,48.06,0,0,0,6.61-3.53Zm212.89-2.37c-.73-1.77-2.51-3.31-5.27-4.64a47.76,47.76,0,0,0-10.6-3.35,118.08,118.08,0,0,0-15-2q-8.55-.66-18.89-.61a144,144,0,0,0-15.82.82,82.9,82.9,0,0,0-11.5,2.08,42.55,42.55,0,0,0-8.26,3.06,59.12,59.12,0,0,0-6.34,3.73Z"/><path class="cls-74" d="M2156.55,2212.6c-127.62,0-260.49,11.23-281.75,33a25.39,25.39,0,0,1,2.32,2.44c17.92-15.09,127.64-30.29,279.43-30.29,155.69,0,267.17,16,280.67,31.46a25.83,25.83,0,0,1,2.14-2.43C2421.81,2224.24,2286.43,2212.6,2156.55,2212.6Z"/><path class="cls-75" d="M1939,2179.24v63.48c0,20.51,128.14,37.14,286.22,37.14s286.21-16.63,286.21-37.14v-63.48Z"/><path class="cls-76" d="M2511.38,2179.24c0,20.51-128.14,37.14-286.21,37.14S1939,2199.75,1939,2179.24s128.15-37.15,286.22-37.15S2511.38,2158.72,2511.38,2179.24Z"/><path class="cls-77" d="M2225.16,2218.94c-140,0-286.37-13.37-286.37-39.16,0-1.42.5-3.91,1.92-3.91s.81,2,.81,3.37c0,16.35,116.49,34.57,283.64,34.57s283.65-18.22,283.65-34.57c0-1.42.24-2.75,1.66-2.75s1.08,1.89,1.08,3.31C2511.55,2205.59,2365.16,2218.94,2225.16,2218.94Z"/><path class="cls-53" d="M2198.12,2181.31c2.81-1.95,5.8-3.86,9-5.76a56.4,56.4,0,0,1,12.3-5.12,116.9,116.9,0,0,1,18.87-3.73,236.4,236.4,0,0,1,28.26-1.53q16.59-.08,31.15,1a212.19,212.19,0,0,1,25.62,3.4,79.19,79.19,0,0,1,18,5.57q6.9,3.33,8.22,7.62l32.23.33a32,32,0,0,1,6.18.57c1.8.37,2.67.83,2.67,1.4v2.65l-41.43-.4q-2.18,4.88-11.1,8.92a113,113,0,0,1-22.72,7l-15.09-2.1a17.8,17.8,0,0,1-3.33-.79c-.87-.32-1.29-.66-1.3-1s1.17-1.09,3.5-1.74,5-1.47,7.9-2.44a79.61,79.61,0,0,0,8.65-3.41c2.81-1.32,4.69-2.89,5.67-4.71l-97.79-1a93.54,93.54,0,0,1-8.63,5.57,56.58,56.58,0,0,1-12.69,4.93,133.78,133.78,0,0,1-19.68,3.55,278.35,278.35,0,0,1-29.67,1.45c-9,0-17.68-.29-26.23-1a180.58,180.58,0,0,1-22.77-3.25,70.82,70.82,0,0,1-16.33-5.35c-4.24-2.12-6.62-4.56-7.11-7.32l-26.54-.27a34.58,34.58,0,0,1-6.26-.56c-1.83-.35-2.77-.82-2.77-1.41v-2.65l36.27.34c1.61-2.79,4.89-5.23,9.92-7.3a112.28,112.28,0,0,1,18.41-5.54l12.15,1.67c3.69.52,5.52,1.12,5.52,1.82,0,.37-.74.84-2.27,1.4s-3.35,1.22-5.45,2a51.94,51.94,0,0,0-6,2.73,12.94,12.94,0,0,0-4.42,3.54Zm-89.49,3.61c.72,1.74,2.35,3.24,4.81,4.5a38.58,38.58,0,0,0,9.22,3.11,93,93,0,0,0,12.42,1.79q6.93.57,14.48.53a150.57,150.57,0,0,0,15.38-.75,89.43,89.43,0,0,0,11.5-1.95,53.12,53.12,0,0,0,8.65-2.86,48.14,48.14,0,0,0,6.61-3.53Zm212.88-2.37c-.73-1.76-2.5-3.31-5.27-4.64a47.46,47.46,0,0,0-10.6-3.34,116.24,116.24,0,0,0-15-2q-8.55-.66-18.89-.61a144.14,144.14,0,0,0-15.83.82,81.6,81.6,0,0,0-11.5,2.09,42.17,42.17,0,0,0-8.26,3.05,60.66,60.66,0,0,0-6.33,3.73Z"/><path class="cls-78" d="M2225.2,2146.11c-127.61,0-260.49,11.23-281.74,33a26.8,26.8,0,0,1,2.32,2.45c17.91-15.1,127.63-30.29,279.42-30.29,155.69,0,267.17,16,280.67,31.45a27.41,27.41,0,0,1,2.14-2.42C2490.46,2157.76,2355.09,2146.11,2225.2,2146.11Z"/><path class="cls-79" d="M1903.24,2112.55V2176c0,20.51,128.14,37.14,286.22,37.14s286.21-16.63,286.21-37.14v-63.49Z"/><ellipse class="cls-80" cx="2189.46" cy="2112.55" rx="286.21" ry="37.14"/><path class="cls-81" d="M2189.45,2152.26c-140,0-286.37-13.37-286.37-39.16,0-1.42.5-3.91,1.92-3.91s.81,1.95.81,3.36c0,16.36,116.49,34.58,283.64,34.58s283.65-18.22,283.65-34.58c0-1.41.25-2.74,1.66-2.74s1.08,1.89,1.08,3.31C2475.84,2138.91,2329.45,2152.26,2189.45,2152.26Z"/><path class="cls-53" d="M2162.41,2114.62q4.22-2.91,9-5.75a56.4,56.4,0,0,1,12.3-5.12,117.89,117.89,0,0,1,18.87-3.74,238.79,238.79,0,0,1,28.26-1.52q16.59-.09,31.15,1.05a214.37,214.37,0,0,1,25.62,3.39,79.66,79.66,0,0,1,18,5.58q6.9,3.33,8.22,7.62l32.23.33a31.2,31.2,0,0,1,6.18.57c1.8.37,2.67.83,2.67,1.39v2.66l-41.43-.4q-2.17,4.88-11.1,8.92a113,113,0,0,1-22.72,7l-15.09-2.1a17.8,17.8,0,0,1-3.33-.79c-.87-.32-1.29-.66-1.3-1s1.17-1.09,3.5-1.74,5-1.47,7.9-2.44a77.69,77.69,0,0,0,8.65-3.42c2.81-1.31,4.69-2.88,5.67-4.71l-97.79-1a92.21,92.21,0,0,1-8.63,5.58,56.14,56.14,0,0,1-12.69,4.92,132.34,132.34,0,0,1-19.68,3.56,278.35,278.35,0,0,1-29.67,1.45c-9,0-17.68-.3-26.23-1a178.89,178.89,0,0,1-22.77-3.24,70.82,70.82,0,0,1-16.33-5.35c-4.24-2.13-6.62-4.56-7.11-7.32l-26.54-.28a33.75,33.75,0,0,1-6.26-.55c-1.83-.35-2.77-.82-2.77-1.41v-2.65l36.27.34c1.61-2.79,4.89-5.23,9.92-7.3a112.58,112.58,0,0,1,18.41-5.54l12.15,1.67c3.69.51,5.52,1.12,5.52,1.82,0,.37-.74.84-2.27,1.4s-3.35,1.22-5.45,2a50.32,50.32,0,0,0-6,2.73,12.94,12.94,0,0,0-4.42,3.54Zm-89.49,3.62c.72,1.74,2.35,3.24,4.81,4.5a38.58,38.58,0,0,0,9.22,3.11,94.62,94.62,0,0,0,12.42,1.79q6.93.57,14.48.53a150.31,150.31,0,0,0,15.38-.76,89.55,89.55,0,0,0,11.5-1.94,53.12,53.12,0,0,0,8.65-2.86,48.14,48.14,0,0,0,6.61-3.53Zm212.88-2.37c-.73-1.76-2.5-3.31-5.27-4.64a47.46,47.46,0,0,0-10.6-3.34,116.24,116.24,0,0,0-15-2q-8.55-.66-18.89-.61a144.14,144.14,0,0,0-15.83.82,81.6,81.6,0,0,0-11.5,2.09,42.17,42.17,0,0,0-8.26,3,59,59,0,0,0-6.33,3.73Z"/><path class="cls-82" d="M2189.49,2079.43c-127.61,0-260.49,11.23-281.74,33a26.8,26.8,0,0,1,2.32,2.45c17.91-15.1,127.63-30.29,279.42-30.29,155.69,0,267.17,16,280.67,31.45a26,26,0,0,1,2.15-2.42C2454.75,2091.08,2319.38,2079.43,2189.49,2079.43Z"/><path class="cls-83" d="M2557.08,2157.31l-51.73,36.79c-16.72,11.89,44,126,135.63,254.76s179.44,223.59,196.16,211.7l51.73-36.79Z"/><path class="cls-84" d="M2888.87,2623.77c-16.71,11.89-104.54-82.9-196.16-211.7s-152.35-242.87-135.63-254.76,104.54,82.89,196.16,211.7S2905.59,2611.87,2888.87,2623.77Z"/><path class="cls-85" d="M2690.62,2413.55c-81.14-114.08-155.09-241.12-134.08-256.06,1.16-.82,3.48-1.86,4.3-.7s-1.12,1.78-2.28,2.61c-13.32,9.48,39.35,115,136.24,251.18s179.26,220.58,192.59,211.1c1.15-.82,2.37-1.4,3.19-.24s-.91,2-2.07,2.79C2867.5,2639.18,2771.76,2527.63,2690.62,2413.55Z"/><path class="cls-53" d="M2705.61,2369.7c3.22,1.16,6.51,2.48,9.91,4a56.91,56.91,0,0,1,11.3,7,117.42,117.42,0,0,1,14,13.21,237.81,237.81,0,0,1,17.63,22.15q9.67,13.47,17.2,26a212.11,212.11,0,0,1,12.08,22.84,79.22,79.22,0,0,1,5.88,17.89q1.27,7.54-1.45,11.12l18.42,26.45a31.49,31.49,0,0,1,3.11,5.36c.75,1.68.87,2.66.42,3l-2.16,1.55-23.69-34q-5.24,1-13.7-3.88a112.89,112.89,0,0,1-18.88-14.45l-7-13.52a18.22,18.22,0,0,1-1.29-3.17c-.24-.89-.21-1.43.1-1.65s1.56.31,3.45,1.84,4.08,3.19,6.56,5a78.36,78.36,0,0,0,7.8,5.07c2.7,1.53,5.07,2.15,7.13,1.89l-55.89-80.25a91.54,91.54,0,0,1-9.55-3.81,55.74,55.74,0,0,1-11.37-7.48,132.65,132.65,0,0,1-14.3-14,277.93,277.93,0,0,1-18.38-23.34c-5.23-7.28-10-14.58-14.38-22a179.67,179.67,0,0,1-10.55-20.43,70.65,70.65,0,0,1-5.11-16.41q-1.1-7,1.84-10L2619.52,2254a33.26,33.26,0,0,1-3.18-5.42c-.78-1.7-.93-2.73-.46-3.08l2.16-1.55,20.74,29.76c3.21-.31,7.1,1,11.7,3.85a113.09,113.09,0,0,1,15.19,11.79l5.68,10.87c1.72,3.3,2.28,5.15,1.72,5.56-.31.22-1.12-.12-2.46-1.05s-2.94-2-4.78-3.28a50.35,50.35,0,0,0-5.73-3.34,13,13,0,0,0-5.44-1.55Zm-54.82-70.83c-1,1.6-1.27,3.79-.87,6.53a38.42,38.42,0,0,0,2.81,9.32,93.8,93.8,0,0,0,5.74,11.15q3.56,6,8,12.11a150.22,150.22,0,0,0,9.53,12.09,89.92,89.92,0,0,0,8.25,8.24,54.1,54.1,0,0,0,7.34,5.4,49.2,49.2,0,0,0,6.71,3.34ZM2776.12,2471c1-1.62,1.25-4,.73-7a48.07,48.07,0,0,0-3.42-10.58,117.33,117.33,0,0,0-7.07-13.41q-4.41-7.35-10.45-15.75a145.24,145.24,0,0,0-9.84-12.42,81.36,81.36,0,0,0-8.37-8.16,41.69,41.69,0,0,0-7.27-5,57.64,57.64,0,0,0-6.72-3Z"/><path class="cls-86" d="M2750,2371.37c-74-104-160.14-205.76-190.18-210.48a26.49,26.49,0,0,1-.64,3.31c22.68,5.85,98.66,86.45,186.64,210.14,90.24,126.87,141.83,227,137.06,246.94a26.67,26.67,0,0,1,3.21.34C2894.25,2594.27,2825.27,2477.21,2750,2371.37Z"/><path class="cls-87" d="M2144,789.28c0,89.72-43,171.76-114.17,234.85C1942.9,1101.18,1814,1150,1670.23,1150c-98.08,0-189.18-22.69-264.74-61.55-50,8.52-127.52,22.85-168.45,30.48a15.75,15.75,0,0,1-17.61-21l45.7-121.49c-43.57-54.56-68.64-118.6-68.64-187.1,0-120.65,77.81-227.47,197.31-292.94,77.77-42.62,173.24-67.74,276.43-67.74C1931.85,428.6,2144,590.07,2144,789.28Z"/><path class="cls-33" d="M1674.46,536.08a17.09,17.09,0,0,1,15.08,16.77v28.9a426.57,426.57,0,0,1,50.09,8.68q18.48,4.35,36.73,10.35a16.9,16.9,0,0,1,11.51,17.34l-3.55,36.24a13.59,13.59,0,0,1-19.39,11.27,206.55,206.55,0,0,0-24.65-9.18,222.64,222.64,0,0,0-46.47-8.69l-4.27-.35v82.76c43.49,12.16,75.43,28.53,96.08,49.12s30.77,46,30.77,76.69q0,49.72-34,79.72c-22.85,20.13-54.87,31.45-96.28,33.9v31.89a14.52,14.52,0,0,1-15.1,14.74h-.27a16,16,0,0,1-15.15-16V968.76l-6.72-.3a442.6,442.6,0,0,1-55.78-6,364.06,364.06,0,0,1-38.54-8.86,16.6,16.6,0,0,1-12.09-17.17l4.17-46.58c.91-10.07,11-15.93,20.6-12.16a301.66,301.66,0,0,0,33.9,11.13,297.18,297.18,0,0,0,54.19,9.06l.27-92.06c-41.74-10.33-73-25.63-93.53-45.9s-31-46.42-31-78.1q0-49.18,33.59-75.86,33.38-26.5,94.69-26.44V550A13.65,13.65,0,0,1,1674.46,536.08Zm-15.14,110.47Q1640,648,1629.16,657.19T1618.33,682q0,14.78,10,24.69t31,15.8Zm26.76,166.7v84.42q21,0,32.29-10t11.23-28.42q0-16.74-10.44-27.78T1686.08,813.25Z"/><path class="cls-88" d="M2029.79,1024.13C1942.9,1101.18,1814,1150,1670.23,1150c-98.08,0-189.18-22.69-264.74-61.55-50,8.52-127.52,22.85-168.45,30.48a15.75,15.75,0,0,1-17.61-21l45.7-121.49c-43.57-54.56-68.64-118.6-68.64-187.1,0-120.65,77.81-227.47,197.31-292.94,62.49,8.49,116.75,30.22,149.69,73.82,72.48,96-9.28,230.73,66.4,298.89,75.11,67.6,195.2-29.3,304.41,16.6C1955.35,902.89,1997.49,941.45,2029.79,1024.13Z"/><path class="cls-33" d="M2264.45,1657.43s32.85,11,36.34,65.45c-5.36-.48-17.87-.19-17.87-.19s2.31-39.56-21.08-47.58C2263.72,1670.51,2264.45,1657.43,2264.45,1657.43Z"/><path class="cls-89" d="M2142.56,1652.24q1.26,15,2.51,30.07c16.53-4.27,34.57-9.22,53.91-9.9a245.69,245.69,0,0,1,68.29,7.28,22.12,22.12,0,0,0,3.7-9.12,30.89,30.89,0,0,0-1.4-15.65,210.55,210.55,0,0,0-33.64-9.33C2201.23,1639,2169.74,1644.47,2142.56,1652.24Z"/><path class="cls-90" d="M2141,1660.89c.05-3.62.33-8.14,1.56-8.65s2.73,2.81,3.4,4.64c.28.77.9,2.61,1.28,8.46.5,7.53-.08,11.22-.61,13.49-.32,1.37-.82,3.44-1.56,3.48s-1.12-1.29-1.89-3.84A57.48,57.48,0,0,1,2141,1660.89Z"/><path class="cls-33" d="M2110.41,1723.83c7,1.37,23.89,5.43,23.89,5.43s-11-35.33,9.75-51.3a36.31,36.31,0,0,0-2.05-21.2C2133.18,1661.59,2114,1678,2110.41,1723.83Z"/><path class="cls-91" d="M1964.69,1731.66s.87-18.69,30.49-18.35c4.65,3.45,4.89,18.71,4.89,18.71Z"/><path class="cls-92" d="M1938.28,2099.72l81.08,47.83L2068,1966.91l-80.39-241.76-23,6.51-35,349C1928.92,2088.61,1932.34,2096.22,1938.28,2099.72Z"/><path class="cls-93" d="M2068,1966.91l-80.39-241.76-23,6.51c5.66,21.47,8.37,56.35,9.65,75.76,5.43,82.56,23.42,105.48,14.71,163-7.25,47.92-23.12,54.58-21.73,86.81,1.51,35.08,21.91,64.13,46.09,86.76l5.95,3.51Z"/><polygon class="cls-94" points="1987.65 1725.15 2418.88 1729.66 2484.41 2101.06 2019.36 2147.55 1987.65 1725.15"/><g class="cls-95"><path class="cls-96" d="M2418.88,1729.66l-142.34-1.49a263.29,263.29,0,0,1-12.62,30.34C2199.2,1890.05,2048.77,1907,2051.51,1929c4.11,32.76,334.5-14.7,342.74,29.24,4,21.19-64.4,70.17-136.56,89.41-87.39,23.3-152.3-3.93-195.81,46.9-14.79,17.28-21.33,37.38-24.52,50.95l447.05-44.4Z"/></g><path class="cls-97" d="M1995.18,1713.31c-5-.06-12-.76-19.64,3.64a30.61,30.61,0,0,0-4.33,3l3.52-1.21c5.65-1.6,13.43.69,16.33,6.4,3.57,7,4.85,23.18,5.63,31.18,2.22,22.77,15.83,164.25,15.83,164.25,1,11.92,10,20.91,20.63,20.63l399.46-22.78a13.79,13.79,0,0,0,8.29-3c5.07-4,7.36-11,6.18-17.67l-19.66-163.48c-1.66-9.41-8.8-16.24-17.09-16.34Z"/><path class="cls-98" d="M1999.6,1713.36c-5-.06-10.94-.81-17.56.9-1.79.46-4.65,1.31-5.91,2.37,0,0,14-3.22,19.35,8.6,3.24,7.21,4.85,23.17,5.63,31.17,2.22,22.76,15.82,164.2,15.82,164.2,1,11.91,10,20.9,20.62,20.62l403.58-10.62a13.74,13.74,0,0,0,8.28-3c5.07-4,7.35-11,6.18-17.67l-24-175.58c-1.66-9.41-8.8-16.23-17.09-16.33Z"/><path class="cls-99" d="M2455.59,1910l-24-175.58c-1.66-9.41-8.8-16.23-17.09-16.33l-414.89-4.68c-5-.06-10.94-.81-17.56.9-1.79.46-4.65,1.31-5.91,2.37,0,0,14-3.22,19.35,8.6a29.43,29.43,0,0,1,1.41,4c40.48,2,80.73,1.27,120.76,4.29,78.46,5.78,156.92,6.53,229.37,38.88,23,10.27,38.76,46.65,32.53,63.38-4.49,12.08-19.83,11.09-25.19,27-5.65,16.72,7.88,28.06,2.21,39.79-6,12.31-24.05,6.49-53.44,15.37a140.46,140.46,0,0,0-36.55,17.27l174.55-4.59a13.74,13.74,0,0,0,8.28-3C2454.48,1923.57,2456.76,1916.58,2455.59,1910Z"/><path class="cls-100" d="M2265.73,1964.39l-50.54,12.73-5.36.48c-5.4.49-10-4.22-10.29-10.47l-2.23-59.09c-.24-6.25,4.05-11.44,9.46-11.54l5.39-.09,50.83,6.49c4.84-.08,8.91-2.71,9.13,3.12l2.07,55.13C2274.4,1967,2270.56,1964,2265.73,1964.39Z"/><path class="cls-101" d="M2269.56,1972.51l-56,5.07c-5.4.48-10.06-4.22-10.29-10.47l-2.23-59.08c-.24-6.25,4-11.44,9.46-11.53l56.15-.94c4.83-.08,8.93,4.62,9.15,10.45l2.07,55.11C2278.11,1967,2274.38,1972.08,2269.56,1972.51Z"/></g></g></g></g></svg>